<svg version="1.1" viewBox="0.0 0.0 761.5433070866142 472.2965879265092" fill="none" stroke="none" stroke-linecap="square" stroke-miterlimit="10" xmlns:xlink="http://www.w3.org/1999/xlink" xmlns="http://www.w3.org/2000/svg"><clipPath id="p.0"><path d="m0 0l761.54333 0l0 472.2966l-761.54333 0l0 -472.2966z" clip-rule="nonzero"/></clipPath><g clip-path="url(#p.0)"><path fill="#000000" fill-opacity="0.0" d="m0 0l761.54333 0l0 472.2966l-761.54333 0z" fill-rule="evenodd"/><path fill="#e1ebf3" d="m227.84251 276.021l0 -179.1496l402.17322 0l0 179.1496z" fill-rule="evenodd"/><path stroke="#6fa8dc" stroke-width="2.0" stroke-linejoin="round" stroke-linecap="butt" stroke-dasharray="8.0,6.0" d="m227.84251 276.021l0 -179.1496l402.17322 0l0 179.1496z" fill-rule="evenodd"/><path fill="#000000" d="m617.37573 222.74307l0 1.328125l-11.421875 0l0 -6.359375l1.171875 0l0 5.03125l4.1875 0l0 -4.734375l1.171875 0l0 4.734375l4.890625 0zm0 -8.0234375l0 1.296875l-8.5625 0l0 -1.296875l8.5625 0zm-10.890625 1.40625q-0.4375 0 -0.640625 -0.21875q-0.21875 -0.21875 -0.21875 -0.546875q0 -0.3125 0.21875 -0.53125q0.203125 -0.234375 0.640625 -0.234375q0.4375 0 0.65625 0.234375q0.21875 0.21875 0.21875 0.53125q0 0.328125 -0.21875 0.546875q-0.21875 0.21875 -0.65625 0.21875zm10.890625 -5.453125l0 1.296875l-12.15625 0l0 -1.296875l12.15625 0zm0.15625 -6.375q0 1.90625 -1.15625 3.0q-1.15625 1.09375 -3.21875 1.09375q-2.0625 0 -3.28125 -1.015625q-1.21875 -1.015625 -1.21875 -2.734375q0 -1.609375 1.0625 -2.546875q1.046875 -0.9375 2.78125 -0.9375l0.828125 0l0 5.890625q1.5 -0.03125 2.28125 -0.75q0.78125 -0.734375 0.78125 -2.046875q0 -1.375 -0.578125 -2.734375l1.15625 0q0.296875 0.6875 0.421875 1.3125q0.140625 0.609375 0.140625 1.46875zm-7.796875 0.359375q0 1.03125 0.671875 1.640625q0.671875 0.609375 1.859375 0.71875l0 -4.46875q-1.21875 0 -1.875 0.546875q-0.65625 0.546875 -0.65625 1.5625zm2.890625 -7.2421875l4.75 0l0 1.328125l-11.421875 0l0 -3.125q0 -2.109375 0.8125 -3.109375q0.796875 -1.0 2.40625 -1.0q2.265625 0 3.0625 2.296875l5.140625 -3.109375l0 1.578125l-4.75 2.765625l0 2.375zm-1.140625 0l0 -1.8125q0 -1.40625 -0.5625 -2.0625q-0.5625 -0.65625 -1.671875 -0.65625q-1.140625 0 -1.640625 0.671875q-0.5 0.65625 -0.5 2.140625l0 1.71875l4.375 0zm6.046875 -11.984375q0 1.90625 -1.15625 3.0q-1.15625 1.09375 -3.21875 1.09375q-2.0625 0 -3.28125 -1.015625q-1.21875 -1.015625 -1.21875 -2.734375q0 -1.609375 1.0625 -2.546875q1.046875 -0.9375 2.78125 -0.9375l0.828125 0l0 5.890625q1.5 -0.03125 2.28125 -0.75q0.78125 -0.734375 0.78125 -2.046875q0 -1.375 -0.578125 -2.734375l1.15625 0q0.296875 0.6875 0.421875 1.3125q0.140625 0.609375 0.140625 1.46875zm-7.796875 0.359375q0 1.03125 0.671875 1.640625q0.671875 0.609375 1.859375 0.71875l0 -4.46875q-1.21875 0 -1.875 0.546875q-0.65625 0.546875 -0.65625 1.5625zm7.640625 -10.9765625l-1.21875 0.25l0 0.0625q0.796875 0.640625 1.09375 1.28125q0.28125 0.640625 0.28125 1.59375q0 1.265625 -0.65625 2.0q-0.65625 0.71875 -1.875 0.71875q-2.59375 0 -2.71875 -4.15625l-0.046875 -1.453125l-0.53125 0q-1.0 0 -1.484375 0.4375q-0.484375 0.4375 -0.484375 1.390625q0 1.0625 0.65625 2.421875l-0.984375 0.390625q-0.34375 -0.625 -0.53125 -1.375q-0.203125 -0.765625 -0.203125 -1.515625q0 -1.53125 0.6875 -2.265625q0.671875 -0.75 2.171875 -0.75l5.84375 0l0 0.96875zm-0.921875 2.921875q0 -1.203125 -0.65625 -1.890625q-0.671875 -0.703125 -1.859375 -0.703125l-0.78125 0l0.0625 1.296875q0.046875 1.546875 0.484375 2.234375q0.421875 0.6875 1.3125 0.6875q0.703125 0 1.078125 -0.421875q0.359375 -0.4375 0.359375 -1.203125zm-0.234375 -12.3828125l0 0.0625q1.3125 0.90625 1.3125 2.6875q0 1.6875 -1.140625 2.625q-1.15625 0.921875 -3.28125 0.921875q-2.109375 0 -3.28125 -0.9375q-1.171875 -0.9375 -1.171875 -2.609375q0 -1.734375 1.265625 -2.671875l0 -0.09375l-0.625 0.046875l-0.59375 0.03125l-3.484375 0l0 -1.296875l12.15625 0l0 1.0625l-1.15625 0.171875zm0.21875 2.59375q0 -1.328125 -0.71875 -1.921875q-0.71875 -0.609375 -2.328125 -0.609375l-0.28125 0q-1.8125 0 -2.59375 0.609375q-0.78125 0.609375 -0.78125 1.9375q0 1.140625 0.890625 1.75q0.890625 0.59375 2.5 0.59375q1.640625 0 2.484375 -0.59375q0.828125 -0.609375 0.828125 -1.765625zm1.09375 -10.1953125q0 1.90625 -1.15625 3.0q-1.15625 1.09375 -3.21875 1.09375q-2.0625 0 -3.28125 -1.015625q-1.21875 -1.015625 -1.21875 -2.734375q0 -1.609375 1.0625 -2.546875q1.046875 -0.9375 2.78125 -0.9375l0.828125 0l0 5.890625q1.5 -0.03125 2.28125 -0.75q0.78125 -0.734375 0.78125 -2.046875q0 -1.375 -0.578125 -2.734375l1.15625 0q0.296875 0.6875 0.421875 1.3125q0.140625 0.609375 0.140625 1.46875zm-7.796875 0.359375q0 1.03125 0.671875 1.640625q0.671875 0.609375 1.859375 0.71875l0 -4.46875q-1.21875 0 -1.875 0.546875q-0.65625 0.546875 -0.65625 1.5625zm-1.078125 -9.6171875q0 -0.578125 0.09375 -1.03125l1.203125 0.1875q-0.125 0.53125 -0.125 0.9375q0 1.03125 0.84375 1.78125q0.84375 0.734375 2.109375 0.734375l4.59375 0l0 1.296875l-8.5625 0l0 -1.078125l1.578125 -0.140625l0 -0.0625q-0.828125 -0.484375 -1.28125 -1.15625q-0.453125 -0.671875 -0.453125 -1.46875z" fill-rule="nonzero"/><path fill="#f3f3f3" d="m304.04724 9.456693l0 0c0 4.1791 27.307098 7.56693 60.992126 7.56693c33.685028 0 60.992126 -3.3878298 60.992126 -7.56693l0 45.401577c0 4.1791 -27.307098 7.566929 -60.992126 7.566929c-33.685028 0 -60.992126 -3.3878288 -60.992126 -7.566929z" fill-rule="evenodd"/><path fill="#f7f7f7" d="m304.04724 9.456693l0 0c0 -4.1790996 27.307098 -7.566929 60.992126 -7.566929c33.685028 0 60.992126 3.3878293 60.992126 7.566929l0 0c0 4.1791 -27.307098 7.56693 -60.992126 7.56693c-33.685028 0 -60.992126 -3.3878298 -60.992126 -7.56693z" fill-rule="evenodd"/><path fill="#000000" fill-opacity="0.0" d="m426.0315 9.456693l0 0c0 4.1791 -27.307098 7.56693 -60.992126 7.56693c-33.685028 0 -60.992126 -3.3878298 -60.992126 -7.56693l0 0c0 -4.1790996 27.307098 -7.566929 60.992126 -7.566929c33.685028 0 60.992126 3.3878293 60.992126 7.566929l0 45.401577c0 4.1791 -27.307098 7.566929 -60.992126 7.566929c-33.685028 0 -60.992126 -3.3878288 -60.992126 -7.566929l0 -45.401577" fill-rule="evenodd"/><path stroke="#000000" stroke-width="1.0" stroke-linejoin="round" stroke-linecap="butt" d="m426.0315 9.456693l0 0c0 4.1791 -27.307098 7.56693 -60.992126 7.56693c-33.685028 0 -60.992126 -3.3878298 -60.992126 -7.56693l0 0c0 -4.1790996 27.307098 -7.566929 60.992126 -7.566929c33.685028 0 60.992126 3.3878293 60.992126 7.566929l0 45.401577c0 4.1791 -27.307098 7.566929 -60.992126 7.566929c-33.685028 0 -60.992126 -3.3878288 -60.992126 -7.566929l0 -45.401577" fill-rule="evenodd"/><path fill="#000000" d="m355.28156 41.800945l-1.328125 0l0 -11.421875l6.359375 0l0 1.171875l-5.03125 0l0 4.1875l4.734375 0l0 1.171875l-4.734375 0l0 4.890625zm8.0234375 0l-1.296875 0l0 -8.5625l1.296875 0l0 8.5625zm-1.40625 -10.890625q0 -0.4375 0.21875 -0.640625q0.21875 -0.21875 0.546875 -0.21875q0.3125 0 0.53125 0.21875q0.234375 0.203125 0.234375 0.640625q0 0.4375 -0.234375 0.65625q-0.21875 0.21875 -0.53125 0.21875q-0.328125 0 -0.546875 -0.21875q-0.21875 -0.21875 -0.21875 -0.65625zm5.453125 10.890625l-1.296875 0l0 -12.15625l1.296875 0l0 12.15625zm6.375 0.15625q-1.90625 0 -3.0 -1.15625q-1.09375 -1.15625 -1.09375 -3.21875q0 -2.0625 1.015625 -3.28125q1.015625 -1.21875 2.734375 -1.21875q1.609375 0 2.546875 1.0625q0.9375 1.046875 0.9375 2.78125l0 0.828125l-5.890625 0q0.03125 1.5 0.75 2.28125q0.734375 0.78125 2.046875 0.78125q1.375 0 2.734375 -0.578125l0 1.15625q-0.6875 0.296875 -1.3125 0.421875q-0.609375 0.140625 -1.46875 0.140625zm-0.359375 -7.796875q-1.03125 0 -1.640625 0.671875q-0.609375 0.671875 -0.71875 1.859375l4.46875 0q0 -1.21875 -0.546875 -1.875q-0.546875 -0.65625 -1.5625 -0.65625z" fill-rule="nonzero"/><path fill="#f3f3f3" d="m243.05511 111.98425l243.9685 0l0 49.543304l-243.9685 0z" fill-rule="evenodd"/><path stroke="#000000" stroke-width="1.0" stroke-linejoin="round" stroke-linecap="butt" d="m243.05511 111.98425l243.9685 0l0 49.543304l-243.9685 0z" fill-rule="evenodd"/><path fill="#000000" d="m308.64484 142.6159l-1.328125 0l0 -11.421875l6.359375 0l0 1.171875l-5.03125 0l0 4.1875l4.734375 0l0 1.171875l-4.734375 0l0 4.890625zm8.0234375 0l-1.296875 0l0 -8.5625l1.296875 0l0 8.5625zm-1.40625 -10.890625q0 -0.4375 0.21875 -0.640625q0.21875 -0.21875 0.546875 -0.21875q0.3125 0 0.53125 0.21875q0.234375 0.203125 0.234375 0.640625q0 0.4375 -0.234375 0.65625q-0.21875 0.21875 -0.53125 0.21875q-0.328125 0 -0.546875 -0.21875q-0.21875 -0.21875 -0.21875 -0.65625zm5.453125 10.890625l-1.296875 0l0 -12.15625l1.296875 0l0 12.15625zm6.375 0.15625q-1.90625 0 -3.0 -1.15625q-1.09375 -1.15625 -1.09375 -3.21875q0 -2.0625 1.015625 -3.28125q1.015625 -1.21875 2.734375 -1.21875q1.609375 0 2.546875 1.0625q0.9375 1.046875 0.9375 2.78125l0 0.828125l-5.890625 0q0.03125 1.5 0.75 2.28125q0.734375 0.78125 2.046875 0.78125q1.375 0 2.734375 -0.578125l0 1.15625q-0.6875 0.296875 -1.3125 0.421875q-0.609375 0.140625 -1.46875 0.140625zm-0.359375 -7.796875q-1.03125 0 -1.640625 0.671875q-0.609375 0.671875 -0.71875 1.859375l4.46875 0q0 -1.21875 -0.546875 -1.875q-0.546875 -0.65625 -1.5625 -0.65625zm5.9140625 7.640625l0 -11.421875l1.328125 0l0 11.421875l-1.328125 0zm10.1171875 0l0 -5.546875q0 -1.046875 -0.484375 -1.5625q-0.46875 -0.515625 -1.484375 -0.515625q-1.34375 0 -1.96875 0.734375q-0.625 0.71875 -0.625 2.390625l0 4.5l-1.296875 0l0 -8.5625l1.0625 0l0.203125 1.171875l0.0625 0q0.40625 -0.640625 1.125 -0.984375q0.71875 -0.34375 1.59375 -0.34375q1.546875 0 2.328125 0.75q0.78125 0.734375 0.78125 2.375l0 5.59375l-1.296875 0zm7.9453125 0.15625q-0.828125 0 -1.53125 -0.3125q-0.6875 -0.3125 -1.15625 -0.953125l-0.09375 0q0.09375 0.75 0.09375 1.4375l0 3.515625l-1.296875 0l0 -12.40625l1.0625 0l0.171875 1.171875l0.0625 0q0.5 -0.703125 1.15625 -1.015625q0.671875 -0.3125 1.53125 -0.3125q1.703125 0 2.625 1.171875q0.9375 1.15625 0.9375 3.25q0 2.109375 -0.953125 3.28125q-0.9375 1.171875 -2.609375 1.171875zm-0.1875 -7.78125q-1.3125 0 -1.90625 0.734375q-0.578125 0.71875 -0.59375 2.3125l0 0.28125q0 1.8125 0.59375 2.59375q0.609375 0.765625 1.9375 0.765625q1.109375 0 1.734375 -0.890625q0.640625 -0.90625 0.640625 -2.484375q0 -1.59375 -0.640625 -2.453125q-0.625 -0.859375 -1.765625 -0.859375zm7.2265625 -0.9375l0 5.546875q0 1.046875 0.46875 1.5625q0.484375 0.515625 1.5 0.515625q1.34375 0 1.96875 -0.734375q0.625 -0.734375 0.625 -2.390625l0 -4.5l1.296875 0l0 8.5625l-1.078125 0l-0.1875 -1.15625l-0.0625 0q-0.40625 0.640625 -1.109375 0.984375q-0.703125 0.328125 -1.609375 0.328125q-1.5625 0 -2.34375 -0.734375q-0.78125 -0.75 -0.78125 -2.390625l0 -5.59375l1.3125 0zm11.3671875 7.640625q0.34375 0 0.65625 -0.046875q0.328125 -0.046875 0.515625 -0.109375l0 1.0q-0.203125 0.109375 -0.625 0.171875q-0.40625 0.0625 -0.734375 0.0625q-2.484375 0 -2.484375 -2.625l0 -5.09375l-1.21875 0l0 -0.625l1.21875 -0.53125l0.546875 -1.828125l0.75 0l0 1.984375l2.484375 0l0 1.0l-2.484375 0l0 5.046875q0 0.765625 0.359375 1.1875q0.375 0.40625 1.015625 0.40625zm9.5234375 -2.125q0 1.515625 -1.09375 2.359375q-1.09375 0.84375 -2.96875 0.84375q-2.03125 0 -3.125 -0.53125l0 -1.28125q0.703125 0.296875 1.53125 0.46875q0.828125 0.171875 1.640625 0.171875q1.328125 0 2.0 -0.5q0.671875 -0.5 0.671875 -1.40625q0 -0.59375 -0.234375 -0.96875q-0.234375 -0.375 -0.796875 -0.6875q-0.5625 -0.328125 -1.703125 -0.734375q-1.59375 -0.578125 -2.28125 -1.359375q-0.671875 -0.78125 -0.671875 -2.03125q0 -1.328125 0.984375 -2.109375q1.0 -0.78125 2.625 -0.78125q1.703125 0 3.140625 0.625l-0.421875 1.15625q-1.40625 -0.59375 -2.75 -0.59375q-1.046875 0 -1.640625 0.453125q-0.59375 0.453125 -0.59375 1.265625q0 0.59375 0.21875 0.96875q0.21875 0.375 0.734375 0.703125q0.515625 0.3125 1.59375 0.6875q1.796875 0.640625 2.46875 1.375q0.671875 0.734375 0.671875 1.90625zm4.90625 2.125q0.34375 0 0.65625 -0.046875q0.328125 -0.046875 0.515625 -0.109375l0 1.0q-0.203125 0.109375 -0.625 0.171875q-0.40625 0.0625 -0.734375 0.0625q-2.484375 0 -2.484375 -2.625l0 -5.09375l-1.21875 0l0 -0.625l1.21875 -0.53125l0.546875 -1.828125l0.75 0l0 1.984375l2.484375 0l0 1.0l-2.484375 0l0 5.046875q0 0.765625 0.359375 1.1875q0.375 0.40625 1.015625 0.40625zm6.7890625 -7.796875q0.578125 0 1.03125 0.09375l-0.1875 1.203125q-0.53125 -0.125 -0.9375 -0.125q-1.03125 0 -1.78125 0.84375q-0.734375 0.84375 -0.734375 2.109375l0 4.59375l-1.296875 0l0 -8.5625l1.078125 0l0.140625 1.578125l0.0625 0q0.484375 -0.828125 1.15625 -1.28125q0.671875 -0.453125 1.46875 -0.453125zm6.25 8.875q-1.90625 0 -3.0 -1.15625q-1.09375 -1.15625 -1.09375 -3.21875q0 -2.0625 1.015625 -3.28125q1.015625 -1.21875 2.734375 -1.21875q1.609375 0 2.546875 1.0625q0.9375 1.046875 0.9375 2.78125l0 0.828125l-5.890625 0q0.03125 1.5 0.75 2.28125q0.734375 0.78125 2.046875 0.78125q1.375 0 2.734375 -0.578125l0 1.15625q-0.6875 0.296875 -1.3125 0.421875q-0.609375 0.140625 -1.46875 0.140625zm-0.359375 -7.796875q-1.03125 0 -1.640625 0.671875q-0.609375 0.671875 -0.71875 1.859375l4.46875 0q0 -1.21875 -0.546875 -1.875q-0.546875 -0.65625 -1.5625 -0.65625zm10.9765625 7.640625l-0.25 -1.21875l-0.0625 0q-0.640625 0.796875 -1.28125 1.09375q-0.640625 0.28125 -1.59375 0.28125q-1.265625 0 -2.0 -0.65625q-0.71875 -0.65625 -0.71875 -1.875q0 -2.59375 4.15625 -2.71875l1.453125 -0.046875l0 -0.53125q0 -1.0 -0.4375 -1.484375q-0.4375 -0.484375 -1.390625 -0.484375q-1.0625 0 -2.421875 0.65625l-0.390625 -0.984375q0.625 -0.34375 1.375 -0.53125q0.765625 -0.203125 1.515625 -0.203125q1.53125 0 2.265625 0.6875q0.75 0.671875 0.75 2.171875l0 5.84375l-0.96875 0zm-2.921875 -0.921875q1.203125 0 1.890625 -0.65625q0.703125 -0.671875 0.703125 -1.859375l0 -0.78125l-1.296875 0.0625q-1.546875 0.046875 -2.234375 0.484375q-0.6875 0.421875 -0.6875 1.3125q0 0.703125 0.421875 1.078125q0.4375 0.359375 1.203125 0.359375zm17.476562 0.921875l0 -5.578125q0 -1.015625 -0.4375 -1.53125q-0.4375 -0.515625 -1.359375 -0.515625q-1.21875 0 -1.796875 0.703125q-0.578125 0.6875 -0.578125 2.140625l0 4.78125l-1.296875 0l0 -5.578125q0 -1.015625 -0.4375 -1.53125q-0.4375 -0.515625 -1.359375 -0.515625q-1.21875 0 -1.796875 0.734375q-0.5625 0.734375 -0.5625 2.390625l0 4.5l-1.296875 0l0 -8.5625l1.0625 0l0.203125 1.171875l0.0625 0q0.375 -0.625 1.03125 -0.96875q0.671875 -0.359375 1.5 -0.359375q2.015625 0 2.625 1.453125l0.0625 0q0.390625 -0.671875 1.109375 -1.0625q0.734375 -0.390625 1.65625 -0.390625q1.453125 0 2.171875 0.75q0.734375 0.734375 0.734375 2.375l0 5.59375l-1.296875 0z" fill-rule="nonzero"/><path fill="#000000" fill-opacity="0.0" d="m365.03937 62.425198l0 49.574802" fill-rule="evenodd"/><path stroke="#000000" stroke-width="1.0" stroke-linejoin="round" stroke-linecap="butt" d="m365.03937 62.425198l0 43.574802" fill-rule="evenodd"/><path fill="#000000" stroke="#000000" stroke-width="1.0" stroke-linecap="butt" d="m363.38763 106.0l1.6517334 4.538101l1.6517334 -4.538101z" fill-rule="evenodd"/><path fill="#000000" fill-opacity="0.0" d="m0 409.7034l182.51968 0l0 69.29135l-182.51968 0z" fill-rule="evenodd"/><path fill="#000000" d="m64.06453 426.45908l0 4.75l-1.328125 0l0 -11.421875l3.125 0q2.109375 0 3.109375 0.8125q1.0 0.796875 1.0 2.40625q0 2.265625 -2.296875 3.0625l3.109375 5.140625l-1.578125 0l-2.765625 -4.75l-2.375 0zm0 -1.140625l1.8125 0q1.40625 0 2.0625 -0.5625q0.65625 -0.5625 0.65625 -1.671875q0 -1.140625 -0.671875 -1.640625q-0.65625 -0.5 -2.140625 -0.5l-1.71875 0l0 4.375zm11.984375 6.046875q-1.90625 0 -3.0 -1.15625q-1.09375 -1.15625 -1.09375 -3.21875q0 -2.0625 1.015625 -3.28125q1.015625 -1.21875 2.734375 -1.21875q1.609375 0 2.546875 1.0625q0.9375 1.046875 0.9375 2.78125l0 0.828125l-5.890625 0q0.03125 1.5 0.75 2.28125q0.734375 0.78125 2.046875 0.78125q1.375 0 2.734375 -0.578125l0 1.15625q-0.6875 0.296875 -1.3125 0.421875q-0.609375 0.140625 -1.46875 0.140625zm-0.359375 -7.796875q-1.03125 0 -1.640625 0.671875q-0.609375 0.671875 -0.71875 1.859375l4.46875 0q0 -1.21875 -0.546875 -1.875q-0.546875 -0.65625 -1.5625 -0.65625zm10.9765625 7.640625l-0.25 -1.21875l-0.0625 0q-0.640625 0.796875 -1.28125 1.09375q-0.640625 0.28125 -1.59375 0.28125q-1.265625 0 -2.0 -0.65625q-0.71875 -0.65625 -0.71875 -1.875q0 -2.59375 4.15625 -2.71875l1.453125 -0.046875l0 -0.53125q0 -1.0 -0.4375 -1.484375q-0.4375 -0.484375 -1.390625 -0.484375q-1.0625 0 -2.421875 0.65625l-0.390625 -0.984375q0.625 -0.34375 1.375 -0.53125q0.765625 -0.203125 1.515625 -0.203125q1.53125 0 2.265625 0.6875q0.75 0.671875 0.75 2.171875l0 5.84375l-0.96875 0zm-2.921875 -0.921875q1.203125 0 1.890625 -0.65625q0.703125 -0.671875 0.703125 -1.859375l0 -0.78125l-1.296875 0.0625q-1.546875 0.046875 -2.234375 0.484375q-0.6875 0.421875 -0.6875 1.3125q0 0.703125 0.421875 1.078125q0.4375 0.359375 1.203125 0.359375zm12.3828125 -0.234375l-0.0625 0q-0.90625 1.3125 -2.6875 1.3125q-1.6875 0 -2.625 -1.140625q-0.921875 -1.15625 -0.921875 -3.28125q0 -2.109375 0.9375 -3.28125q0.9375 -1.171875 2.609375 -1.171875q1.734375 0 2.671875 1.265625l0.09375 0l-0.046875 -0.625l-0.03125 -0.59375l0 -3.484375l1.296875 0l0 12.15625l-1.0625 0l-0.171875 -1.15625zm-2.59375 0.21875q1.328125 0 1.921875 -0.71875q0.609375 -0.71875 0.609375 -2.328125l0 -0.28125q0 -1.8125 -0.609375 -2.59375q-0.609375 -0.78125 -1.9375 -0.78125q-1.140625 0 -1.75 0.890625q-0.59375 0.890625 -0.59375 2.5q0 1.640625 0.59375 2.484375q0.609375 0.828125 1.765625 0.828125zm7.8671875 0.9375l-1.296875 0l0 -8.5625l1.296875 0l0 8.5625zm-1.40625 -10.890625q0 -0.4375 0.21875 -0.640625q0.21875 -0.21875 0.546875 -0.21875q0.3125 0 0.53125 0.21875q0.234375 0.203125 0.234375 0.640625q0 0.4375 -0.234375 0.65625q-0.21875 0.21875 -0.53125 0.21875q-0.328125 0 -0.546875 -0.21875q-0.21875 -0.21875 -0.21875 -0.65625zm10.015625 10.890625l0 -5.546875q0 -1.046875 -0.484375 -1.5625q-0.46875 -0.515625 -1.484375 -0.515625q-1.34375 0 -1.96875 0.734375q-0.625 0.71875 -0.625 2.390625l0 4.5l-1.296875 0l0 -8.5625l1.0625 0l0.203125 1.171875l0.0625 0q0.40625 -0.640625 1.125 -0.984375q0.71875 -0.34375 1.59375 -0.34375q1.546875 0 2.328125 0.75q0.78125 0.734375 0.78125 2.375l0 5.59375l-1.296875 0zm10.9765625 -8.5625l0 0.8125l-1.59375 0.1875q0.21875 0.28125 0.390625 0.71875q0.171875 0.4375 0.171875 1.0q0 1.25 -0.859375 2.0q-0.859375 0.75 -2.359375 0.75q-0.375 0 -0.71875 -0.0625q-0.828125 0.4375 -0.828125 1.109375q0 0.34375 0.28125 0.515625q0.296875 0.171875 1.0 0.171875l1.515625 0q1.390625 0 2.140625 0.59375q0.75 0.578125 0.75 1.703125q0 1.421875 -1.140625 2.15625q-1.140625 0.75 -3.328125 0.75q-1.6875 0 -2.59375 -0.625q-0.90625 -0.625 -0.90625 -1.765625q0 -0.78125 0.5 -1.359375q0.5 -0.5625 1.40625 -0.765625q-0.328125 -0.15625 -0.5625 -0.46875q-0.21875 -0.3125 -0.21875 -0.71875q0 -0.46875 0.25 -0.8125q0.25 -0.359375 0.796875 -0.6875q-0.671875 -0.28125 -1.09375 -0.9375q-0.40625 -0.65625 -0.40625 -1.5q0 -1.40625 0.84375 -2.15625q0.84375 -0.765625 2.390625 -0.765625q0.671875 0 1.203125 0.15625l2.96875 0zm-6.828125 10.0q0 0.703125 0.578125 1.0625q0.59375 0.359375 1.6875 0.359375q1.625 0 2.40625 -0.5q0.796875 -0.484375 0.796875 -1.3125q0 -0.703125 -0.4375 -0.984375q-0.421875 -0.265625 -1.609375 -0.265625l-1.5625 0q-0.875 0 -1.375 0.421875q-0.484375 0.4375 -0.484375 1.21875zm0.703125 -7.265625q0 0.90625 0.5 1.375q0.515625 0.453125 1.421875 0.453125q1.890625 0 1.890625 -1.84375q0 -1.9375 -1.921875 -1.9375q-0.90625 0 -1.40625 0.5q-0.484375 0.484375 -0.484375 1.453125z" fill-rule="nonzero"/><path fill="#000000" d="m54.33406 441.50595q1.6875 0 2.625 1.15625q0.9375 1.140625 0.9375 3.25q0 2.109375 -0.953125 3.28125q-0.9375 1.171875 -2.609375 1.171875q-0.828125 0 -1.53125 -0.3125q-0.6875 -0.3125 -1.15625 -0.953125l-0.09375 0l-0.265625 1.109375l-0.9375 0l0 -12.15625l1.296875 0l0 2.953125q0 0.984375 -0.0625 1.78125l0.0625 0q0.90625 -1.28125 2.6875 -1.28125zm-0.1875 1.078125q-1.328125 0 -1.921875 0.765625q-0.578125 0.765625 -0.578125 2.5625q0 1.8125 0.59375 2.59375q0.609375 0.765625 1.9375 0.765625q1.203125 0 1.78125 -0.859375q0.59375 -0.875 0.59375 -2.515625q0 -1.671875 -0.59375 -2.484375q-0.578125 -0.828125 -1.8125 -0.828125zm7.3046875 7.625l-1.296875 0l0 -8.5625l1.296875 0l0 8.5625zm-1.40625 -10.890625q0 -0.4375 0.21875 -0.640625q0.21875 -0.21875 0.546875 -0.21875q0.3125 0 0.53125 0.21875q0.234375 0.203125 0.234375 0.640625q0 0.4375 -0.234375 0.65625q-0.21875 0.21875 -0.53125 0.21875q-0.328125 0 -0.546875 -0.21875q-0.21875 -0.21875 -0.21875 -0.65625zm10.015625 10.890625l0 -5.546875q0 -1.046875 -0.484375 -1.5625q-0.46875 -0.515625 -1.484375 -0.515625q-1.34375 0 -1.96875 0.734375q-0.625 0.71875 -0.625 2.390625l0 4.5l-1.296875 0l0 -8.5625l1.0625 0l0.203125 1.171875l0.0625 0q0.40625 -0.640625 1.125 -0.984375q0.71875 -0.34375 1.59375 -0.34375q1.546875 0 2.328125 0.75q0.78125 0.734375 0.78125 2.375l0 5.59375l-1.296875 0zm9.2265625 0l-0.25 -1.21875l-0.0625 0q-0.640625 0.796875 -1.28125 1.09375q-0.640625 0.28125 -1.59375 0.28125q-1.265625 0 -2.0 -0.65625q-0.71875 -0.65625 -0.71875 -1.875q0 -2.59375 4.15625 -2.71875l1.453125 -0.046875l0 -0.53125q0 -1.0 -0.4375 -1.484375q-0.4375 -0.484375 -1.390625 -0.484375q-1.0625 0 -2.421875 0.65625l-0.390625 -0.984375q0.625 -0.34375 1.375 -0.53125q0.765625 -0.203125 1.515625 -0.203125q1.53125 0 2.265625 0.6875q0.75 0.671875 0.75 2.171875l0 5.84375l-0.96875 0zm-2.921875 -0.921875q1.203125 0 1.890625 -0.65625q0.703125 -0.671875 0.703125 -1.859375l0 -0.78125l-1.296875 0.0625q-1.546875 0.046875 -2.234375 0.484375q-0.6875 0.421875 -0.6875 1.3125q0 0.703125 0.421875 1.078125q0.4375 0.359375 1.203125 0.359375zm10.4609375 -7.796875q0.578125 0 1.03125 0.09375l-0.1875 1.203125q-0.53125 -0.125 -0.9375 -0.125q-1.03125 0 -1.78125 0.84375q-0.734375 0.84375 -0.734375 2.109375l0 4.59375l-1.296875 0l0 -8.5625l1.078125 0l0.140625 1.578125l0.0625 0q0.484375 -0.828125 1.15625 -1.28125q0.671875 -0.453125 1.46875 -0.453125zm1.265625 0.15625l1.390625 0l1.875 4.875q0.625 1.671875 0.765625 2.421875l0.0625 0q0.109375 -0.40625 0.421875 -1.359375q0.328125 -0.96875 2.125 -5.9375l1.390625 0l-3.671875 9.75q-0.546875 1.453125 -1.28125 2.046875q-0.734375 0.609375 -1.796875 0.609375q-0.59375 0 -1.171875 -0.125l0 -1.046875q0.4375 0.09375 0.96875 0.09375q1.328125 0 1.90625 -1.5l0.46875 -1.21875l-3.453125 -8.609375zm19.40625 7.40625l-0.0625 0q-0.90625 1.3125 -2.6875 1.3125q-1.6875 0 -2.625 -1.140625q-0.921875 -1.15625 -0.921875 -3.28125q0 -2.109375 0.9375 -3.28125q0.9375 -1.171875 2.609375 -1.171875q1.734375 0 2.671875 1.265625l0.09375 0l-0.046875 -0.625l-0.03125 -0.59375l0 -3.484375l1.296875 0l0 12.15625l-1.0625 0l-0.171875 -1.15625zm-2.59375 0.21875q1.328125 0 1.921875 -0.71875q0.609375 -0.71875 0.609375 -2.328125l0 -0.28125q0 -1.8125 -0.609375 -2.59375q-0.609375 -0.78125 -1.9375 -0.78125q-1.140625 0 -1.75 0.890625q-0.59375 0.890625 -0.59375 2.5q0 1.640625 0.59375 2.484375q0.609375 0.828125 1.765625 0.828125zm11.8359375 0.9375l-0.25 -1.21875l-0.0625 0q-0.640625 0.796875 -1.28125 1.09375q-0.640625 0.28125 -1.59375 0.28125q-1.265625 0 -2.0 -0.65625q-0.71875 -0.65625 -0.71875 -1.875q0 -2.59375 4.15625 -2.71875l1.453125 -0.046875l0 -0.53125q0 -1.0 -0.4375 -1.484375q-0.4375 -0.484375 -1.390625 -0.484375q-1.0625 0 -2.421875 0.65625l-0.390625 -0.984375q0.625 -0.34375 1.375 -0.53125q0.765625 -0.203125 1.515625 -0.203125q1.53125 0 2.265625 0.6875q0.75 0.671875 0.75 2.171875l0 5.84375l-0.96875 0zm-2.921875 -0.921875q1.203125 0 1.890625 -0.65625q0.703125 -0.671875 0.703125 -1.859375l0 -0.78125l-1.296875 0.0625q-1.546875 0.046875 -2.234375 0.484375q-0.6875 0.421875 -0.6875 1.3125q0 0.703125 0.421875 1.078125q0.4375 0.359375 1.203125 0.359375zm9.3203125 0q0.34375 0 0.65625 -0.046875q0.328125 -0.046875 0.515625 -0.109375l0 1.0q-0.203125 0.109375 -0.625 0.171875q-0.40625 0.0625 -0.734375 0.0625q-2.484375 0 -2.484375 -2.625l0 -5.09375l-1.21875 0l0 -0.625l1.21875 -0.53125l0.546875 -1.828125l0.75 0l0 1.984375l2.484375 0l0 1.0l-2.484375 0l0 5.046875q0 0.765625 0.359375 1.1875q0.375 0.40625 1.015625 0.40625zm8.1484375 0.921875l-0.25 -1.21875l-0.0625 0q-0.640625 0.796875 -1.28125 1.09375q-0.640625 0.28125 -1.59375 0.28125q-1.265625 0 -2.0 -0.65625q-0.71875 -0.65625 -0.71875 -1.875q0 -2.59375 4.15625 -2.71875l1.453125 -0.046875l0 -0.53125q0 -1.0 -0.4375 -1.484375q-0.4375 -0.484375 -1.390625 -0.484375q-1.0625 0 -2.421875 0.65625l-0.390625 -0.984375q0.625 -0.34375 1.375 -0.53125q0.765625 -0.203125 1.515625 -0.203125q1.53125 0 2.265625 0.6875q0.75 0.671875 0.75 2.171875l0 5.84375l-0.96875 0zm-2.921875 -0.921875q1.203125 0 1.890625 -0.65625q0.703125 -0.671875 0.703125 -1.859375l0 -0.78125l-1.296875 0.0625q-1.546875 0.046875 -2.234375 0.484375q-0.6875 0.421875 -0.6875 1.3125q0 0.703125 0.421875 1.078125q0.4375 0.359375 1.203125 0.359375z" fill-rule="nonzero"/><path fill="#000000" d="m51.650467 460.64658l0 5.546875q0 1.046875 0.46875 1.5625q0.484375 0.515625 1.5 0.515625q1.34375 0 1.96875 -0.734375q0.625 -0.734375 0.625 -2.390625l0 -4.5l1.296875 0l0 8.5625l-1.078125 0l-0.1875 -1.15625l-0.0625 0q-0.40625 0.640625 -1.109375 0.984375q-0.703125 0.328125 -1.609375 0.328125q-1.5625 0 -2.34375 -0.734375q-0.78125 -0.75 -0.78125 -2.390625l0 -5.59375l1.3125 0zm14.4609375 8.5625l0 -5.546875q0 -1.046875 -0.484375 -1.5625q-0.46875 -0.515625 -1.484375 -0.515625q-1.34375 0 -1.96875 0.734375q-0.625 0.71875 -0.625 2.390625l0 4.5l-1.296875 0l0 -8.5625l1.0625 0l0.203125 1.171875l0.0625 0q0.40625 -0.640625 1.125 -0.984375q0.71875 -0.34375 1.59375 -0.34375q1.546875 0 2.328125 0.75q0.78125 0.734375 0.78125 2.375l0 5.59375l-1.296875 0zm7.9453125 -8.703125q1.6875 0 2.625 1.15625q0.9375 1.140625 0.9375 3.25q0 2.109375 -0.953125 3.28125q-0.9375 1.171875 -2.609375 1.171875q-0.828125 0 -1.53125 -0.3125q-0.6875 -0.3125 -1.15625 -0.953125l-0.09375 0l-0.265625 1.109375l-0.9375 0l0 -12.15625l1.296875 0l0 2.953125q0 0.984375 -0.0625 1.78125l0.0625 0q0.90625 -1.28125 2.6875 -1.28125zm-0.1875 1.078125q-1.328125 0 -1.921875 0.765625q-0.578125 0.765625 -0.578125 2.5625q0 1.8125 0.59375 2.59375q0.609375 0.765625 1.9375 0.765625q1.203125 0 1.78125 -0.859375q0.59375 -0.875 0.59375 -2.515625q0 -1.671875 -0.59375 -2.484375q-0.578125 -0.828125 -1.8125 -0.828125zm7.2265625 -0.9375l0 5.546875q0 1.046875 0.46875 1.5625q0.484375 0.515625 1.5 0.515625q1.34375 0 1.96875 -0.734375q0.625 -0.734375 0.625 -2.390625l0 -4.5l1.296875 0l0 8.5625l-1.078125 0l-0.1875 -1.15625l-0.0625 0q-0.40625 0.640625 -1.109375 0.984375q-0.703125 0.328125 -1.609375 0.328125q-1.5625 0 -2.34375 -0.734375q-0.78125 -0.75 -0.78125 -2.390625l0 -5.59375l1.3125 0zm17.460938 1.0l-2.171875 0l0 7.5625l-1.296875 0l0 -7.5625l-1.53125 0l0 -0.578125l1.53125 -0.46875l0 -0.484375q0 -3.15625 2.75 -3.15625q0.6875 0 1.59375 0.28125l-0.328125 1.03125q-0.75 -0.234375 -1.28125 -0.234375q-0.734375 0 -1.09375 0.484375q-0.34375 0.484375 -0.34375 1.5625l0 0.5625l2.171875 0l0 1.0zm-5.0 0l-2.171875 0l0 7.5625l-1.296875 0l0 -7.5625l-1.53125 0l0 -0.578125l1.53125 -0.46875l0 -0.484375q0 -3.15625 2.75 -3.15625q0.6875 0 1.59375 0.28125l-0.328125 1.03125q-0.75 -0.234375 -1.28125 -0.234375q-0.734375 0 -1.09375 0.484375q-0.34375 0.484375 -0.34375 1.5625l0 0.5625l2.171875 0l0 1.0zm10.6171875 7.71875q-1.90625 0 -3.0 -1.15625q-1.09375 -1.15625 -1.09375 -3.21875q0 -2.0625 1.015625 -3.28125q1.015625 -1.21875 2.734375 -1.21875q1.609375 0 2.546875 1.0625q0.9375 1.046875 0.9375 2.78125l0 0.828125l-5.890625 0q0.03125 1.5 0.75 2.28125q0.734375 0.78125 2.046875 0.78125q1.375 0 2.734375 -0.578125l0 1.15625q-0.6875 0.296875 -1.3125 0.421875q-0.609375 0.140625 -1.46875 0.140625zm-0.359375 -7.796875q-1.03125 0 -1.640625 0.671875q-0.609375 0.671875 -0.71875 1.859375l4.46875 0q0 -1.21875 -0.546875 -1.875q-0.546875 -0.65625 -1.5625 -0.65625zm9.6171875 -1.078125q0.578125 0 1.03125 0.09375l-0.1875 1.203125q-0.53125 -0.125 -0.9375 -0.125q-1.03125 0 -1.78125 0.84375q-0.734375 0.84375 -0.734375 2.109375l0 4.59375l-1.296875 0l0 -8.5625l1.078125 0l0.140625 1.578125l0.0625 0q0.484375 -0.828125 1.15625 -1.28125q0.671875 -0.453125 1.46875 -0.453125zm6.25 8.875q-1.90625 0 -3.0 -1.15625q-1.09375 -1.15625 -1.09375 -3.21875q0 -2.0625 1.015625 -3.28125q1.015625 -1.21875 2.734375 -1.21875q1.609375 0 2.546875 1.0625q0.9375 1.046875 0.9375 2.78125l0 0.828125l-5.890625 0q0.03125 1.5 0.75 2.28125q0.734375 0.78125 2.046875 0.78125q1.375 0 2.734375 -0.578125l0 1.15625q-0.6875 0.296875 -1.3125 0.421875q-0.609375 0.140625 -1.46875 0.140625zm-0.359375 -7.796875q-1.03125 0 -1.640625 0.671875q-0.609375 0.671875 -0.71875 1.859375l4.46875 0q0 -1.21875 -0.546875 -1.875q-0.546875 -0.65625 -1.5625 -0.65625zm11.5390625 6.484375l-0.0625 0q-0.90625 1.3125 -2.6875 1.3125q-1.6875 0 -2.625 -1.140625q-0.921875 -1.15625 -0.921875 -3.28125q0 -2.109375 0.9375 -3.28125q0.9375 -1.171875 2.609375 -1.171875q1.734375 0 2.671875 1.265625l0.09375 0l-0.046875 -0.625l-0.03125 -0.59375l0 -3.484375l1.296875 0l0 12.15625l-1.0625 0l-0.171875 -1.15625zm-2.59375 0.21875q1.328125 0 1.921875 -0.71875q0.609375 -0.71875 0.609375 -2.328125l0 -0.28125q0 -1.8125 -0.609375 -2.59375q-0.609375 -0.78125 -1.9375 -0.78125q-1.140625 0 -1.75 0.890625q-0.59375 0.890625 -0.59375 2.5q0 1.640625 0.59375 2.484375q0.609375 0.828125 1.765625 0.828125z" fill-rule="nonzero"/><path fill="#000000" fill-opacity="0.0" d="m182.51968 409.7034l182.51968 0l0 69.29135l-182.51968 0z" fill-rule="evenodd"/><path fill="#000000" d="m246.58421 426.45908l0 4.75l-1.328125 0l0 -11.421875l3.125 0q2.109375 0 3.109375 0.8125q1.0 0.796875 1.0 2.40625q0 2.265625 -2.296875 3.0625l3.109375 5.140625l-1.578125 0l-2.765625 -4.75l-2.375 0zm0 -1.140625l1.8125 0q1.40625 0 2.0625 -0.5625q0.65625 -0.5625 0.65625 -1.671875q0 -1.140625 -0.671875 -1.640625q-0.65625 -0.5 -2.140625 -0.5l-1.71875 0l0 4.375zm11.98439 6.046875q-1.90625 0 -3.0000153 -1.15625q-1.09375 -1.15625 -1.09375 -3.21875q0 -2.0625 1.015625 -3.28125q1.0156403 -1.21875 2.7343903 -1.21875q1.609375 0 2.546875 1.0625q0.9375 1.046875 0.9375 2.78125l0 0.828125l-5.8906403 0q0.03125 1.5 0.75001526 2.28125q0.734375 0.78125 2.046875 0.78125q1.375 0 2.734375 -0.578125l0 1.15625q-0.6875 0.296875 -1.3125 0.421875q-0.609375 0.140625 -1.46875 0.140625zm-0.359375 -7.796875q-1.03125 0 -1.640625 0.671875q-0.60939026 0.671875 -0.71876526 1.859375l4.4687653 0q0 -1.21875 -0.546875 -1.875q-0.546875 -0.65625 -1.5625 -0.65625zm10.9765625 7.640625l-0.25 -1.21875l-0.0625 0q-0.640625 0.796875 -1.28125 1.09375q-0.640625 0.28125 -1.59375 0.28125q-1.265625 0 -2.0 -0.65625q-0.71875 -0.65625 -0.71875 -1.875q0 -2.59375 4.15625 -2.71875l1.453125 -0.046875l0 -0.53125q0 -1.0 -0.4375 -1.484375q-0.4375 -0.484375 -1.390625 -0.484375q-1.0625 0 -2.421875 0.65625l-0.390625 -0.984375q0.625 -0.34375 1.375 -0.53125q0.765625 -0.203125 1.515625 -0.203125q1.53125 0 2.265625 0.6875q0.75 0.671875 0.75 2.171875l0 5.84375l-0.96875 0zm-2.921875 -0.921875q1.203125 0 1.890625 -0.65625q0.703125 -0.671875 0.703125 -1.859375l0 -0.78125l-1.296875 0.0625q-1.546875 0.046875 -2.234375 0.484375q-0.6875 0.421875 -0.6875 1.3125q0 0.703125 0.421875 1.078125q0.4375 0.359375 1.203125 0.359375zm12.3828125 -0.234375l-0.0625 0q-0.90625 1.3125 -2.6875 1.3125q-1.6875 0 -2.625 -1.140625q-0.921875 -1.15625 -0.921875 -3.28125q0 -2.109375 0.9375 -3.28125q0.9375 -1.171875 2.609375 -1.171875q1.734375 0 2.671875 1.265625l0.09375 0l-0.046875 -0.625l-0.03125 -0.59375l0 -3.484375l1.296875 0l0 12.15625l-1.0625 0l-0.171875 -1.15625zm-2.59375 0.21875q1.328125 0 1.921875 -0.71875q0.609375 -0.71875 0.609375 -2.328125l0 -0.28125q0 -1.8125 -0.609375 -2.59375q-0.609375 -0.78125 -1.9375 -0.78125q-1.140625 0 -1.75 0.890625q-0.59375 0.890625 -0.59375 2.5q0 1.640625 0.59375 2.484375q0.609375 0.828125 1.765625 0.828125zm7.8671875 0.9375l-1.296875 0l0 -8.5625l1.296875 0l0 8.5625zm-1.40625 -10.890625q0 -0.4375 0.21875 -0.640625q0.21875 -0.21875 0.546875 -0.21875q0.3125 0 0.53125 0.21875q0.234375 0.203125 0.234375 0.640625q0 0.4375 -0.234375 0.65625q-0.21875 0.21875 -0.53125 0.21875q-0.328125 0 -0.546875 -0.21875q-0.21875 -0.21875 -0.21875 -0.65625zm10.015625 10.890625l0 -5.546875q0 -1.046875 -0.484375 -1.5625q-0.46875 -0.515625 -1.484375 -0.515625q-1.34375 0 -1.96875 0.734375q-0.625 0.71875 -0.625 2.390625l0 4.5l-1.296875 0l0 -8.5625l1.0625 0l0.203125 1.171875l0.0625 0q0.40625 -0.640625 1.125 -0.984375q0.71875 -0.34375 1.59375 -0.34375q1.546875 0 2.328125 0.75q0.78125 0.734375 0.78125 2.375l0 5.59375l-1.296875 0zm10.9765625 -8.5625l0 0.8125l-1.59375 0.1875q0.21875 0.28125 0.390625 0.71875q0.171875 0.4375 0.171875 1.0q0 1.25 -0.859375 2.0q-0.859375 0.75 -2.359375 0.75q-0.375 0 -0.71875 -0.0625q-0.828125 0.4375 -0.828125 1.109375q0 0.34375 0.28125 0.515625q0.296875 0.171875 1.0 0.171875l1.515625 0q1.390625 0 2.140625 0.59375q0.75 0.578125 0.75 1.703125q0 1.421875 -1.140625 2.15625q-1.140625 0.75 -3.328125 0.75q-1.6875 0 -2.59375 -0.625q-0.90625 -0.625 -0.90625 -1.765625q0 -0.78125 0.5 -1.359375q0.5 -0.5625 1.40625 -0.765625q-0.328125 -0.15625 -0.5625 -0.46875q-0.21875 -0.3125 -0.21875 -0.71875q0 -0.46875 0.25 -0.8125q0.25 -0.359375 0.796875 -0.6875q-0.671875 -0.28125 -1.09375 -0.9375q-0.40625 -0.65625 -0.40625 -1.5q0 -1.40625 0.84375 -2.15625q0.84375 -0.765625 2.390625 -0.765625q0.671875 0 1.203125 0.15625l2.96875 0zm-6.828125 10.0q0 0.703125 0.578125 1.0625q0.59375 0.359375 1.6875 0.359375q1.625 0 2.40625 -0.5q0.796875 -0.484375 0.796875 -1.3125q0 -0.703125 -0.4375 -0.984375q-0.421875 -0.265625 -1.609375 -0.265625l-1.5625 0q-0.875 0 -1.375 0.421875q-0.484375 0.4375 -0.484375 1.21875zm0.703125 -7.265625q0 0.90625 0.5 1.375q0.515625 0.453125 1.421875 0.453125q1.890625 0 1.890625 -1.84375q0 -1.9375 -1.921875 -1.9375q-0.90625 0 -1.40625 0.5q-0.484375 0.484375 -0.484375 1.453125z" fill-rule="nonzero"/><path fill="#000000" d="m236.85374 441.50595q1.6875 0 2.625 1.15625q0.9375 1.140625 0.9375 3.25q0 2.109375 -0.953125 3.28125q-0.9375 1.171875 -2.609375 1.171875q-0.828125 0 -1.53125 -0.3125q-0.6875 -0.3125 -1.15625 -0.953125l-0.09375 0l-0.265625 1.109375l-0.9375 0l0 -12.15625l1.296875 0l0 2.953125q0 0.984375 -0.0625 1.78125l0.0625 0q0.90625 -1.28125 2.6875 -1.28125zm-0.1875 1.078125q-1.328125 0 -1.921875 0.765625q-0.578125 0.765625 -0.578125 2.5625q0 1.8125 0.59375 2.59375q0.609375 0.765625 1.9375 0.765625q1.203125 0 1.78125 -0.859375q0.59375 -0.875 0.59375 -2.515625q0 -1.671875 -0.59375 -2.484375q-0.578125 -0.828125 -1.8125 -0.828125zm7.3046875 7.625l-1.296875 0l0 -8.5625l1.296875 0l0 8.5625zm-1.40625 -10.890625q0 -0.4375 0.21875 -0.640625q0.21875 -0.21875 0.546875 -0.21875q0.3125 0 0.53125 0.21875q0.234375 0.203125 0.234375 0.640625q0 0.4375 -0.234375 0.65625q-0.21875 0.21875 -0.53125 0.21875q-0.328125 0 -0.546875 -0.21875q-0.21875 -0.21875 -0.21875 -0.65625zm10.015625 10.890625l0 -5.546875q0 -1.046875 -0.484375 -1.5625q-0.46875 -0.515625 -1.484375 -0.515625q-1.34375 0 -1.96875 0.734375q-0.625 0.71875 -0.625 2.390625l0 4.5l-1.296875 0l0 -8.5625l1.0625 0l0.203125 1.171875l0.0625 0q0.40625 -0.640625 1.125 -0.984375q0.71875 -0.34375 1.59375 -0.34375q1.546875 0 2.328125 0.75q0.78125 0.734375 0.78125 2.375l0 5.59375l-1.296875 0zm9.226578 0l-0.25 -1.21875l-0.0625 0q-0.640625 0.796875 -1.28125 1.09375q-0.640625 0.28125 -1.59375 0.28125q-1.265625 0 -2.0 -0.65625q-0.71876526 -0.65625 -0.71876526 -1.875q0 -2.59375 4.1562653 -2.71875l1.453125 -0.046875l0 -0.53125q0 -1.0 -0.4375 -1.484375q-0.4375 -0.484375 -1.390625 -0.484375q-1.0625 0 -2.421875 0.65625l-0.390625 -0.984375q0.625 -0.34375 1.375 -0.53125q0.765625 -0.203125 1.515625 -0.203125q1.53125 0 2.265625 0.6875q0.75 0.671875 0.75 2.171875l0 5.84375l-0.96875 0zm-2.921875 -0.921875q1.203125 0 1.890625 -0.65625q0.703125 -0.671875 0.703125 -1.859375l0 -0.78125l-1.296875 0.0625q-1.546875 0.046875 -2.234375 0.484375q-0.6875 0.421875 -0.6875 1.3125q0 0.703125 0.421875 1.078125q0.4375 0.359375 1.203125 0.359375zm10.4609375 -7.796875q0.578125 0 1.03125 0.09375l-0.1875 1.203125q-0.53125 -0.125 -0.9375 -0.125q-1.03125 0 -1.78125 0.84375q-0.734375 0.84375 -0.734375 2.109375l0 4.59375l-1.296875 0l0 -8.5625l1.078125 0l0.140625 1.578125l0.0625 0q0.484375 -0.828125 1.15625 -1.28125q0.671875 -0.453125 1.46875 -0.453125zm1.265625 0.15625l1.390625 0l1.875 4.875q0.625 1.671875 0.765625 2.421875l0.0625 0q0.109375 -0.40625 0.421875 -1.359375q0.328125 -0.96875 2.125 -5.9375l1.390625 0l-3.671875 9.75q-0.546875 1.453125 -1.28125 2.046875q-0.734375 0.609375 -1.796875 0.609375q-0.59375 0 -1.171875 -0.125l0 -1.046875q0.4375 0.09375 0.96875 0.09375q1.328125 0 1.90625 -1.5l0.46875 -1.21875l-3.453125 -8.609375zm19.40625 7.40625l-0.0625 0q-0.90625 1.3125 -2.6875 1.3125q-1.6875 0 -2.625 -1.140625q-0.921875 -1.15625 -0.921875 -3.28125q0 -2.109375 0.9375 -3.28125q0.9375 -1.171875 2.609375 -1.171875q1.734375 0 2.671875 1.265625l0.09375 0l-0.046875 -0.625l-0.03125 -0.59375l0 -3.484375l1.296875 0l0 12.15625l-1.0625 0l-0.171875 -1.15625zm-2.59375 0.21875q1.328125 0 1.921875 -0.71875q0.609375 -0.71875 0.609375 -2.328125l0 -0.28125q0 -1.8125 -0.609375 -2.59375q-0.609375 -0.78125 -1.9375 -0.78125q-1.140625 0 -1.75 0.890625q-0.59375 0.890625 -0.59375 2.5q0 1.640625 0.59375 2.484375q0.609375 0.828125 1.765625 0.828125zm11.8359375 0.9375l-0.25 -1.21875l-0.0625 0q-0.640625 0.796875 -1.28125 1.09375q-0.640625 0.28125 -1.59375 0.28125q-1.265625 0 -2.0 -0.65625q-0.71875 -0.65625 -0.71875 -1.875q0 -2.59375 4.15625 -2.71875l1.453125 -0.046875l0 -0.53125q0 -1.0 -0.4375 -1.484375q-0.4375 -0.484375 -1.390625 -0.484375q-1.0625 0 -2.421875 0.65625l-0.390625 -0.984375q0.625 -0.34375 1.375 -0.53125q0.765625 -0.203125 1.515625 -0.203125q1.53125 0 2.265625 0.6875q0.75 0.671875 0.75 2.171875l0 5.84375l-0.96875 0zm-2.921875 -0.921875q1.203125 0 1.890625 -0.65625q0.703125 -0.671875 0.703125 -1.859375l0 -0.78125l-1.296875 0.0625q-1.546875 0.046875 -2.234375 0.484375q-0.6875 0.421875 -0.6875 1.3125q0 0.703125 0.421875 1.078125q0.4375 0.359375 1.203125 0.359375zm9.3203125 0q0.34375 0 0.65625 -0.046875q0.328125 -0.046875 0.515625 -0.109375l0 1.0q-0.203125 0.109375 -0.625 0.171875q-0.40625 0.0625 -0.734375 0.0625q-2.484375 0 -2.484375 -2.625l0 -5.09375l-1.21875 0l0 -0.625l1.21875 -0.53125l0.546875 -1.828125l0.75 0l0 1.984375l2.484375 0l0 1.0l-2.484375 0l0 5.046875q0 0.765625 0.359375 1.1875q0.375 0.40625 1.015625 0.40625zm8.1484375 0.921875l-0.25 -1.21875l-0.0625 0q-0.640625 0.796875 -1.28125 1.09375q-0.640625 0.28125 -1.59375 0.28125q-1.265625 0 -2.0 -0.65625q-0.71875 -0.65625 -0.71875 -1.875q0 -2.59375 4.15625 -2.71875l1.453125 -0.046875l0 -0.53125q0 -1.0 -0.4375 -1.484375q-0.4375 -0.484375 -1.390625 -0.484375q-1.0625 0 -2.421875 0.65625l-0.390625 -0.984375q0.625 -0.34375 1.375 -0.53125q0.765625 -0.203125 1.515625 -0.203125q1.53125 0 2.265625 0.6875q0.75 0.671875 0.75 2.171875l0 5.84375l-0.96875 0zm-2.921875 -0.921875q1.203125 0 1.890625 -0.65625q0.703125 -0.671875 0.703125 -1.859375l0 -0.78125l-1.296875 0.0625q-1.546875 0.046875 -2.234375 0.484375q-0.6875 0.421875 -0.6875 1.3125q0 0.703125 0.421875 1.078125q0.4375 0.359375 1.203125 0.359375z" fill-rule="nonzero"/><path fill="#000000" d="m246.75609 460.50595q1.6875 0 2.625 1.15625q0.9375 1.140625 0.9375 3.25q0 2.109375 -0.953125 3.28125q-0.9375 1.171875 -2.609375 1.171875q-0.828125 0 -1.53125 -0.3125q-0.6875 -0.3125 -1.15625 -0.953125l-0.09375 0l-0.265625 1.109375l-0.9375 0l0 -12.15625l1.296875 0l0 2.953125q0 0.984375 -0.0625 1.78125l0.0625 0q0.90625 -1.28125 2.6875 -1.28125zm-0.1875 1.078125q-1.328125 0 -1.921875 0.765625q-0.578125 0.765625 -0.578125 2.5625q0 1.8125 0.59375 2.59375q0.609375 0.765625 1.9375 0.765625q1.203125 0 1.78125 -0.859375q0.59375 -0.875 0.59375 -2.515625q0 -1.671875 -0.59375 -2.484375q-0.578125 -0.828125 -1.8125 -0.828125zm7.2265625 -0.9375l0 5.546875q0 1.046875 0.46875 1.5625q0.484375 0.515625 1.5 0.515625q1.3437653 0 1.9687653 -0.734375q0.625 -0.734375 0.625 -2.390625l0 -4.5l1.296875 0l0 8.5625l-1.078125 0l-0.1875 -1.15625l-0.0625 0q-0.40625 0.640625 -1.109375 0.984375q-0.703125 0.328125 -1.6093903 0.328125q-1.5625 0 -2.34375 -0.734375q-0.78125 -0.75 -0.78125 -2.390625l0 -5.59375l1.3125 0zm17.460953 1.0l-2.171875 0l0 7.5625l-1.296875 0l0 -7.5625l-1.53125 0l0 -0.578125l1.53125 -0.46875l0 -0.484375q0 -3.15625 2.75 -3.15625q0.6875 0 1.59375 0.28125l-0.328125 1.03125q-0.75 -0.234375 -1.28125 -0.234375q-0.734375 0 -1.09375 0.484375q-0.34375 0.484375 -0.34375 1.5625l0 0.5625l2.171875 0l0 1.0zm-5.0 0l-2.171875 0l0 7.5625l-1.296875 0l0 -7.5625l-1.53125 0l0 -0.578125l1.53125 -0.46875l0 -0.484375q0 -3.15625 2.75 -3.15625q0.6875 0 1.59375 0.28125l-0.328125 1.03125q-0.75 -0.234375 -1.28125 -0.234375q-0.734375 0 -1.09375 0.484375q-0.34375 0.484375 -0.34375 1.5625l0 0.5625l2.171875 0l0 1.0zm10.6171875 7.71875q-1.90625 0 -3.0 -1.15625q-1.09375 -1.15625 -1.09375 -3.21875q0 -2.0625 1.015625 -3.28125q1.015625 -1.21875 2.734375 -1.21875q1.609375 0 2.546875 1.0625q0.9375 1.046875 0.9375 2.78125l0 0.828125l-5.890625 0q0.03125 1.5 0.75 2.28125q0.734375 0.78125 2.046875 0.78125q1.375 0 2.734375 -0.578125l0 1.15625q-0.6875 0.296875 -1.3125 0.421875q-0.609375 0.140625 -1.46875 0.140625zm-0.359375 -7.796875q-1.03125 0 -1.640625 0.671875q-0.609375 0.671875 -0.71875 1.859375l4.46875 0q0 -1.21875 -0.546875 -1.875q-0.546875 -0.65625 -1.5625 -0.65625zm9.6171875 -1.078125q0.578125 0 1.03125 0.09375l-0.1875 1.203125q-0.53125 -0.125 -0.9375 -0.125q-1.03125 0 -1.78125 0.84375q-0.734375 0.84375 -0.734375 2.109375l0 4.59375l-1.296875 0l0 -8.5625l1.078125 0l0.140625 1.578125l0.0625 0q0.484375 -0.828125 1.15625 -1.28125q0.671875 -0.453125 1.46875 -0.453125zm6.25 8.875q-1.90625 0 -3.0 -1.15625q-1.09375 -1.15625 -1.09375 -3.21875q0 -2.0625 1.015625 -3.28125q1.015625 -1.21875 2.734375 -1.21875q1.609375 0 2.546875 1.0625q0.9375 1.046875 0.9375 2.78125l0 0.828125l-5.890625 0q0.03125 1.5 0.75 2.28125q0.734375 0.78125 2.046875 0.78125q1.375 0 2.734375 -0.578125l0 1.15625q-0.6875 0.296875 -1.3125 0.421875q-0.609375 0.140625 -1.46875 0.140625zm-0.359375 -7.796875q-1.03125 0 -1.640625 0.671875q-0.609375 0.671875 -0.71875 1.859375l4.46875 0q0 -1.21875 -0.546875 -1.875q-0.546875 -0.65625 -1.5625 -0.65625zm11.5390625 6.484375l-0.0625 0q-0.90625 1.3125 -2.6875 1.3125q-1.6875 0 -2.625 -1.140625q-0.921875 -1.15625 -0.921875 -3.28125q0 -2.109375 0.9375 -3.28125q0.9375 -1.171875 2.609375 -1.171875q1.734375 0 2.671875 1.265625l0.09375 0l-0.046875 -0.625l-0.03125 -0.59375l0 -3.484375l1.296875 0l0 12.15625l-1.0625 0l-0.171875 -1.15625zm-2.59375 0.21875q1.328125 0 1.921875 -0.71875q0.609375 -0.71875 0.609375 -2.328125l0 -0.28125q0 -1.8125 -0.609375 -2.59375q-0.609375 -0.78125 -1.9375 -0.78125q-1.140625 0 -1.75 0.890625q-0.59375 0.890625 -0.59375 2.5q0 1.640625 0.59375 2.484375q0.609375 0.828125 1.765625 0.828125z" fill-rule="nonzero"/><path fill="#000000" fill-opacity="0.0" d="m365.03937 409.7034l182.51971 0l0 69.29135l-182.51971 0z" fill-rule="evenodd"/><path fill="#000000" d="m429.1039 426.45908l0 4.75l-1.328125 0l0 -11.421875l3.125 0q2.109375 0 3.109375 0.8125q1.0 0.796875 1.0 2.40625q0 2.265625 -2.296875 3.0625l3.109375 5.140625l-1.578125 0l-2.765625 -4.75l-2.375 0zm0 -1.140625l1.8125 0q1.40625 0 2.0625 -0.5625q0.65625 -0.5625 0.65625 -1.671875q0 -1.140625 -0.671875 -1.640625q-0.65625 -0.5 -2.140625 -0.5l-1.71875 0l0 4.375zm11.984375 6.046875q-1.90625 0 -3.0 -1.15625q-1.09375 -1.15625 -1.09375 -3.21875q0 -2.0625 1.015625 -3.28125q1.015625 -1.21875 2.734375 -1.21875q1.609375 0 2.546875 1.0625q0.9375 1.046875 0.9375 2.78125l0 0.828125l-5.890625 0q0.03125 1.5 0.75 2.28125q0.734375 0.78125 2.046875 0.78125q1.375 0 2.734375 -0.578125l0 1.15625q-0.6875 0.296875 -1.3125 0.421875q-0.609375 0.140625 -1.46875 0.140625zm-0.359375 -7.796875q-1.03125 0 -1.640625 0.671875q-0.609375 0.671875 -0.71875 1.859375l4.46875 0q0 -1.21875 -0.546875 -1.875q-0.546875 -0.65625 -1.5625 -0.65625zm10.9765625 7.640625l-0.25 -1.21875l-0.0625 0q-0.640625 0.796875 -1.28125 1.09375q-0.640625 0.28125 -1.59375 0.28125q-1.265625 0 -2.0 -0.65625q-0.71875 -0.65625 -0.71875 -1.875q0 -2.59375 4.15625 -2.71875l1.453125 -0.046875l0 -0.53125q0 -1.0 -0.4375 -1.484375q-0.4375 -0.484375 -1.390625 -0.484375q-1.0625 0 -2.421875 0.65625l-0.390625 -0.984375q0.625 -0.34375 1.375 -0.53125q0.765625 -0.203125 1.515625 -0.203125q1.53125 0 2.265625 0.6875q0.75 0.671875 0.75 2.171875l0 5.84375l-0.96875 0zm-2.921875 -0.921875q1.203125 0 1.890625 -0.65625q0.703125 -0.671875 0.703125 -1.859375l0 -0.78125l-1.296875 0.0625q-1.546875 0.046875 -2.234375 0.484375q-0.6875 0.421875 -0.6875 1.3125q0 0.703125 0.421875 1.078125q0.4375 0.359375 1.203125 0.359375zm12.3828125 -0.234375l-0.0625 0q-0.90625 1.3125 -2.6875 1.3125q-1.6875 0 -2.625 -1.140625q-0.921875 -1.15625 -0.921875 -3.28125q0 -2.109375 0.9375 -3.28125q0.9375 -1.171875 2.609375 -1.171875q1.734375 0 2.671875 1.265625l0.09375 0l-0.046875 -0.625l-0.03125 -0.59375l0 -3.484375l1.296875 0l0 12.15625l-1.0625 0l-0.171875 -1.15625zm-2.59375 0.21875q1.328125 0 1.921875 -0.71875q0.609375 -0.71875 0.609375 -2.328125l0 -0.28125q0 -1.8125 -0.609375 -2.59375q-0.609375 -0.78125 -1.9375 -0.78125q-1.140625 0 -1.75 0.890625q-0.59375 0.890625 -0.59375 2.5q0 1.640625 0.59375 2.484375q0.609375 0.828125 1.765625 0.828125zm7.8671875 0.9375l-1.296875 0l0 -8.5625l1.296875 0l0 8.5625zm-1.40625 -10.890625q0 -0.4375 0.21875 -0.640625q0.21875 -0.21875 0.546875 -0.21875q0.3125 0 0.53125 0.21875q0.234375 0.203125 0.234375 0.640625q0 0.4375 -0.234375 0.65625q-0.21875 0.21875 -0.53125 0.21875q-0.328125 0 -0.546875 -0.21875q-0.21875 -0.21875 -0.21875 -0.65625zm10.015625 10.890625l0 -5.546875q0 -1.046875 -0.484375 -1.5625q-0.46875 -0.515625 -1.484375 -0.515625q-1.34375 0 -1.96875 0.734375q-0.625 0.71875 -0.625 2.390625l0 4.5l-1.296875 0l0 -8.5625l1.0625 0l0.203125 1.171875l0.0625 0q0.40625 -0.640625 1.125 -0.984375q0.71875 -0.34375 1.59375 -0.34375q1.546875 0 2.328125 0.75q0.78125 0.734375 0.78125 2.375l0 5.59375l-1.296875 0zm10.9765625 -8.5625l0 0.8125l-1.59375 0.1875q0.21875 0.28125 0.390625 0.71875q0.171875 0.4375 0.171875 1.0q0 1.25 -0.859375 2.0q-0.859375 0.75 -2.359375 0.75q-0.375 0 -0.71875 -0.0625q-0.828125 0.4375 -0.828125 1.109375q0 0.34375 0.28125 0.515625q0.296875 0.171875 1.0 0.171875l1.515625 0q1.390625 0 2.140625 0.59375q0.75 0.578125 0.75 1.703125q0 1.421875 -1.140625 2.15625q-1.140625 0.75 -3.328125 0.75q-1.6875 0 -2.59375 -0.625q-0.90625 -0.625 -0.90625 -1.765625q0 -0.78125 0.5 -1.359375q0.5 -0.5625 1.40625 -0.765625q-0.328125 -0.15625 -0.5625 -0.46875q-0.21875 -0.3125 -0.21875 -0.71875q0 -0.46875 0.25 -0.8125q0.25 -0.359375 0.796875 -0.6875q-0.671875 -0.28125 -1.09375 -0.9375q-0.40625 -0.65625 -0.40625 -1.5q0 -1.40625 0.84375 -2.15625q0.84375 -0.765625 2.390625 -0.765625q0.671875 0 1.203125 0.15625l2.96875 0zm-6.828125 10.0q0 0.703125 0.578125 1.0625q0.59375 0.359375 1.6875 0.359375q1.625 0 2.40625 -0.5q0.796875 -0.484375 0.796875 -1.3125q0 -0.703125 -0.4375 -0.984375q-0.421875 -0.265625 -1.609375 -0.265625l-1.5625 0q-0.875 0 -1.375 0.421875q-0.484375 0.4375 -0.484375 1.21875zm0.703125 -7.265625q0 0.90625 0.5 1.375q0.515625 0.453125 1.421875 0.453125q1.890625 0 1.890625 -1.84375q0 -1.9375 -1.921875 -1.9375q-0.90625 0 -1.40625 0.5q-0.484375 0.484375 -0.484375 1.453125z" fill-rule="nonzero"/><path fill="#000000" d="m427.4086 449.2872q0.34375 0 0.65625 -0.046875q0.328125 -0.046875 0.515625 -0.109375l0 1.0q-0.203125 0.109375 -0.625 0.171875q-0.40625 0.0625 -0.734375 0.0625q-2.484375 0 -2.484375 -2.625l0 -5.09375l-1.21875 0l0 -0.625l1.21875 -0.53125l0.546875 -1.828125l0.75 0l0 1.984375l2.484375 0l0 1.0l-2.484375 0l0 5.046875q0 0.765625 0.359375 1.1875q0.375 0.40625 1.015625 0.40625zm6.5078125 1.078125q-1.90625 0 -3.0 -1.15625q-1.09375 -1.15625 -1.09375 -3.21875q0 -2.0625 1.015625 -3.28125q1.015625 -1.21875 2.734375 -1.21875q1.609375 0 2.546875 1.0625q0.9375 1.046875 0.9375 2.78125l0 0.828125l-5.890625 0q0.03125 1.5 0.75 2.28125q0.734375 0.78125 2.046875 0.78125q1.375 0 2.734375 -0.578125l0 1.15625q-0.6875 0.296875 -1.3125 0.421875q-0.609375 0.140625 -1.46875 0.140625zm-0.359375 -7.796875q-1.03125 0 -1.640625 0.671875q-0.609375 0.671875 -0.71875 1.859375l4.46875 0q0 -1.21875 -0.546875 -1.875q-0.546875 -0.65625 -1.5625 -0.65625zm7.7734375 3.25l-2.96875 -4.171875l1.46875 0l2.265625 3.28125l2.25 -3.28125l1.453125 0l-2.96875 4.171875l3.125 4.390625l-1.46875 0l-2.390625 -3.46875l-2.421875 3.46875l-1.46875 0l3.125 -4.390625zm9.0859375 3.46875q0.34375 0 0.65625 -0.046875q0.328125 -0.046875 0.515625 -0.109375l0 1.0q-0.203125 0.109375 -0.625 0.171875q-0.40625 0.0625 -0.734375 0.0625q-2.484375 0 -2.484375 -2.625l0 -5.09375l-1.21875 0l0 -0.625l1.21875 -0.53125l0.546875 -1.828125l0.75 0l0 1.984375l2.484375 0l0 1.0l-2.484375 0l0 5.046875q0 0.765625 0.359375 1.1875q0.375 0.40625 1.015625 0.40625zm12.8671875 -0.234375l-0.0625 0q-0.90625 1.3125 -2.6875 1.3125q-1.6875 0 -2.625 -1.140625q-0.921875 -1.15625 -0.921875 -3.28125q0 -2.109375 0.9375 -3.28125q0.9375 -1.171875 2.609375 -1.171875q1.734375 0 2.671875 1.265625l0.09375 0l-0.046875 -0.625l-0.03125 -0.59375l0 -3.484375l1.296875 0l0 12.15625l-1.0625 0l-0.171875 -1.15625zm-2.59375 0.21875q1.328125 0 1.921875 -0.71875q0.609375 -0.71875 0.609375 -2.328125l0 -0.28125q0 -1.8125 -0.609375 -2.59375q-0.609375 -0.78125 -1.9375 -0.78125q-1.140625 0 -1.75 0.890625q-0.59375 0.890625 -0.59375 2.5q0 1.640625 0.59375 2.484375q0.609375 0.828125 1.765625 0.828125zm11.8359375 0.9375l-0.25 -1.21875l-0.0625 0q-0.640625 0.796875 -1.28125 1.09375q-0.640625 0.28125 -1.59375 0.28125q-1.265625 0 -2.0 -0.65625q-0.71875 -0.65625 -0.71875 -1.875q0 -2.59375 4.15625 -2.71875l1.453125 -0.046875l0 -0.53125q0 -1.0 -0.4375 -1.484375q-0.4375 -0.484375 -1.390625 -0.484375q-1.0625 0 -2.421875 0.65625l-0.390625 -0.984375q0.625 -0.34375 1.375 -0.53125q0.765625 -0.203125 1.515625 -0.203125q1.53125 0 2.265625 0.6875q0.75 0.671875 0.75 2.171875l0 5.84375l-0.96875 0zm-2.921875 -0.921875q1.203125 0 1.890625 -0.65625q0.703125 -0.671875 0.703125 -1.859375l0 -0.78125l-1.296875 0.0625q-1.546875 0.046875 -2.234375 0.484375q-0.6875 0.421875 -0.6875 1.3125q0 0.703125 0.421875 1.078125q0.4375 0.359375 1.203125 0.359375zm9.3203125 0q0.34375 0 0.65625 -0.046875q0.328125 -0.046875 0.515625 -0.109375l0 1.0q-0.203125 0.109375 -0.625 0.171875q-0.40625 0.0625 -0.734375 0.0625q-2.484375 0 -2.484375 -2.625l0 -5.09375l-1.21875 0l0 -0.625l1.21875 -0.53125l0.546875 -1.828125l0.75 0l0 1.984375l2.484375 0l0 1.0l-2.484375 0l0 5.046875q0 0.765625 0.359375 1.1875q0.375 0.40625 1.015625 0.40625zm8.1484375 0.921875l-0.25 -1.21875l-0.0625 0q-0.640625 0.796875 -1.28125 1.09375q-0.640625 0.28125 -1.59375 0.28125q-1.265625 0 -2.0 -0.65625q-0.71875 -0.65625 -0.71875 -1.875q0 -2.59375 4.15625 -2.71875l1.453125 -0.046875l0 -0.53125q0 -1.0 -0.4375 -1.484375q-0.4375 -0.484375 -1.390625 -0.484375q-1.0625 0 -2.421875 0.65625l-0.390625 -0.984375q0.625 -0.34375 1.375 -0.53125q0.765625 -0.203125 1.515625 -0.203125q1.53125 0 2.265625 0.6875q0.75 0.671875 0.75 2.171875l0 5.84375l-0.96875 0zm-2.921875 -0.921875q1.203125 0 1.890625 -0.65625q0.703125 -0.671875 0.703125 -1.859375l0 -0.78125l-1.296875 0.0625q-1.546875 0.046875 -2.234375 0.484375q-0.6875 0.421875 -0.6875 1.3125q0 0.703125 0.421875 1.078125q0.4375 0.359375 1.203125 0.359375z" fill-rule="nonzero"/><path fill="#000000" d="m429.2758 460.50595q1.6875 0 2.625 1.15625q0.9375 1.140625 0.9375 3.25q0 2.109375 -0.953125 3.28125q-0.9375 1.171875 -2.609375 1.171875q-0.828125 0 -1.53125 -0.3125q-0.6875 -0.3125 -1.15625 -0.953125l-0.09375 0l-0.265625 1.109375l-0.9375 0l0 -12.15625l1.296875 0l0 2.953125q0 0.984375 -0.0625 1.78125l0.0625 0q0.90625 -1.28125 2.6875 -1.28125zm-0.1875 1.078125q-1.328125 0 -1.921875 0.765625q-0.578125 0.765625 -0.578125 2.5625q0 1.8125 0.59375 2.59375q0.609375 0.765625 1.9375 0.765625q1.203125 0 1.78125 -0.859375q0.59375 -0.875 0.59375 -2.515625q0 -1.671875 -0.59375 -2.484375q-0.578125 -0.828125 -1.8125 -0.828125zm7.2265625 -0.9375l0 5.546875q0 1.046875 0.46875 1.5625q0.484375 0.515625 1.5 0.515625q1.34375 0 1.96875 -0.734375q0.625 -0.734375 0.625 -2.390625l0 -4.5l1.296875 0l0 8.5625l-1.078125 0l-0.1875 -1.15625l-0.0625 0q-0.40625 0.640625 -1.109375 0.984375q-0.703125 0.328125 -1.609375 0.328125q-1.5625 0 -2.34375 -0.734375q-0.78125 -0.75 -0.78125 -2.390625l0 -5.59375l1.3125 0zm17.460938 1.0l-2.171875 0l0 7.5625l-1.296875 0l0 -7.5625l-1.53125 0l0 -0.578125l1.53125 -0.46875l0 -0.484375q0 -3.15625 2.75 -3.15625q0.6875 0 1.59375 0.28125l-0.328125 1.03125q-0.75 -0.234375 -1.28125 -0.234375q-0.734375 0 -1.09375 0.484375q-0.34375 0.484375 -0.34375 1.5625l0 0.5625l2.171875 0l0 1.0zm-5.0 0l-2.171875 0l0 7.5625l-1.296875 0l0 -7.5625l-1.53125 0l0 -0.578125l1.53125 -0.46875l0 -0.484375q0 -3.15625 2.75 -3.15625q0.6875 0 1.59375 0.28125l-0.328125 1.03125q-0.75 -0.234375 -1.28125 -0.234375q-0.734375 0 -1.09375 0.484375q-0.34375 0.484375 -0.34375 1.5625l0 0.5625l2.171875 0l0 1.0zm10.6171875 7.71875q-1.90625 0 -3.0 -1.15625q-1.09375 -1.15625 -1.09375 -3.21875q0 -2.0625 1.015625 -3.28125q1.015625 -1.21875 2.734375 -1.21875q1.609375 0 2.546875 1.0625q0.9375 1.046875 0.9375 2.78125l0 0.828125l-5.890625 0q0.03125 1.5 0.75 2.28125q0.734375 0.78125 2.046875 0.78125q1.375 0 2.734375 -0.578125l0 1.15625q-0.6875 0.296875 -1.3125 0.421875q-0.609375 0.140625 -1.46875 0.140625zm-0.359375 -7.796875q-1.03125 0 -1.640625 0.671875q-0.609375 0.671875 -0.71875 1.859375l4.46875 0q0 -1.21875 -0.546875 -1.875q-0.546875 -0.65625 -1.5625 -0.65625zm9.6171875 -1.078125q0.578125 0 1.03125 0.09375l-0.1875 1.203125q-0.53125 -0.125 -0.9375 -0.125q-1.03125 0 -1.78125 0.84375q-0.734375 0.84375 -0.734375 2.109375l0 4.59375l-1.296875 0l0 -8.5625l1.078125 0l0.140625 1.578125l0.0625 0q0.484375 -0.828125 1.15625 -1.28125q0.671875 -0.453125 1.46875 -0.453125zm6.25 8.875q-1.90625 0 -3.0 -1.15625q-1.09375 -1.15625 -1.09375 -3.21875q0 -2.0625 1.015625 -3.28125q1.015625 -1.21875 2.734375 -1.21875q1.609375 0 2.546875 1.0625q0.9375 1.046875 0.9375 2.78125l0 0.828125l-5.890625 0q0.03125 1.5 0.75 2.28125q0.734375 0.78125 2.046875 0.78125q1.375 0 2.734375 -0.578125l0 1.15625q-0.6875 0.296875 -1.3125 0.421875q-0.609375 0.140625 -1.46875 0.140625zm-0.359375 -7.796875q-1.03125 0 -1.640625 0.671875q-0.609375 0.671875 -0.71875 1.859375l4.46875 0q0 -1.21875 -0.546875 -1.875q-0.546875 -0.65625 -1.5625 -0.65625zm11.5390625 6.484375l-0.0625 0q-0.90625 1.3125 -2.6875 1.3125q-1.6875 0 -2.625 -1.140625q-0.921875 -1.15625 -0.921875 -3.28125q0 -2.109375 0.9375 -3.28125q0.9375 -1.171875 2.609375 -1.171875q1.734375 0 2.671875 1.265625l0.09375 0l-0.046875 -0.625l-0.03125 -0.59375l0 -3.484375l1.296875 0l0 12.15625l-1.0625 0l-0.171875 -1.15625zm-2.59375 0.21875q1.328125 0 1.921875 -0.71875q0.609375 -0.71875 0.609375 -2.328125l0 -0.28125q0 -1.8125 -0.609375 -2.59375q-0.609375 -0.78125 -1.9375 -0.78125q-1.140625 0 -1.75 0.890625q-0.59375 0.890625 -0.59375 2.5q0 1.640625 0.59375 2.484375q0.609375 0.828125 1.765625 0.828125z" fill-rule="nonzero"/><path fill="#000000" fill-opacity="0.0" d="m547.5591 409.7034l182.51965 0l0 69.29135l-182.51965 0z" fill-rule="evenodd"/><path fill="#000000" d="m611.6236 426.45908l0 4.75l-1.328125 0l0 -11.421875l3.125 0q2.109375 0 3.109375 0.8125q1.0 0.796875 1.0 2.40625q0 2.265625 -2.296875 3.0625l3.109375 5.140625l-1.578125 0l-2.765625 -4.75l-2.375 0zm0 -1.140625l1.8125 0q1.40625 0 2.0625 -0.5625q0.65625 -0.5625 0.65625 -1.671875q0 -1.140625 -0.671875 -1.640625q-0.65625 -0.5 -2.140625 -0.5l-1.71875 0l0 4.375zm11.984375 6.046875q-1.90625 0 -3.0 -1.15625q-1.09375 -1.15625 -1.09375 -3.21875q0 -2.0625 1.015625 -3.28125q1.015625 -1.21875 2.734375 -1.21875q1.609375 0 2.546875 1.0625q0.9375 1.046875 0.9375 2.78125l0 0.828125l-5.890625 0q0.03125 1.5 0.75 2.28125q0.734375 0.78125 2.046875 0.78125q1.375 0 2.734375 -0.578125l0 1.15625q-0.6875 0.296875 -1.3125 0.421875q-0.609375 0.140625 -1.46875 0.140625zm-0.359375 -7.796875q-1.03125 0 -1.640625 0.671875q-0.609375 0.671875 -0.71875 1.859375l4.46875 0q0 -1.21875 -0.546875 -1.875q-0.546875 -0.65625 -1.5625 -0.65625zm10.9765625 7.640625l-0.25 -1.21875l-0.0625 0q-0.640625 0.796875 -1.28125 1.09375q-0.640625 0.28125 -1.59375 0.28125q-1.265625 0 -2.0 -0.65625q-0.71875 -0.65625 -0.71875 -1.875q0 -2.59375 4.15625 -2.71875l1.453125 -0.046875l0 -0.53125q0 -1.0 -0.4375 -1.484375q-0.4375 -0.484375 -1.390625 -0.484375q-1.0625 0 -2.421875 0.65625l-0.390625 -0.984375q0.625 -0.34375 1.375 -0.53125q0.765625 -0.203125 1.515625 -0.203125q1.53125 0 2.265625 0.6875q0.75 0.671875 0.75 2.171875l0 5.84375l-0.96875 0zm-2.921875 -0.921875q1.203125 0 1.890625 -0.65625q0.703125 -0.671875 0.703125 -1.859375l0 -0.78125l-1.296875 0.0625q-1.546875 0.046875 -2.234375 0.484375q-0.6875 0.421875 -0.6875 1.3125q0 0.703125 0.421875 1.078125q0.4375 0.359375 1.203125 0.359375zm12.3828125 -0.234375l-0.0625 0q-0.90625 1.3125 -2.6875 1.3125q-1.6875 0 -2.625 -1.140625q-0.921875 -1.15625 -0.921875 -3.28125q0 -2.109375 0.9375 -3.28125q0.9375 -1.171875 2.609375 -1.171875q1.734375 0 2.671875 1.265625l0.09375 0l-0.046875 -0.625l-0.03125 -0.59375l0 -3.484375l1.296875 0l0 12.15625l-1.0625 0l-0.171875 -1.15625zm-2.59375 0.21875q1.328125 0 1.921875 -0.71875q0.609375 -0.71875 0.609375 -2.328125l0 -0.28125q0 -1.8125 -0.609375 -2.59375q-0.609375 -0.78125 -1.9375 -0.78125q-1.140625 0 -1.75 0.890625q-0.59375 0.890625 -0.59375 2.5q0 1.640625 0.59375 2.484375q0.609375 0.828125 1.765625 0.828125zm7.8671875 0.9375l-1.296875 0l0 -8.5625l1.296875 0l0 8.5625zm-1.40625 -10.890625q0 -0.4375 0.21875 -0.640625q0.21875 -0.21875 0.546875 -0.21875q0.3125 0 0.53125 0.21875q0.234375 0.203125 0.234375 0.640625q0 0.4375 -0.234375 0.65625q-0.21875 0.21875 -0.53125 0.21875q-0.328125 0 -0.546875 -0.21875q-0.21875 -0.21875 -0.21875 -0.65625zm10.015625 10.890625l0 -5.546875q0 -1.046875 -0.484375 -1.5625q-0.46875 -0.515625 -1.484375 -0.515625q-1.34375 0 -1.96875 0.734375q-0.625 0.71875 -0.625 2.390625l0 4.5l-1.296875 0l0 -8.5625l1.0625 0l0.203125 1.171875l0.0625 0q0.40625 -0.640625 1.125 -0.984375q0.71875 -0.34375 1.59375 -0.34375q1.546875 0 2.328125 0.75q0.78125 0.734375 0.78125 2.375l0 5.59375l-1.296875 0zm10.9765625 -8.5625l0 0.8125l-1.59375 0.1875q0.21875 0.28125 0.390625 0.71875q0.171875 0.4375 0.171875 1.0q0 1.25 -0.859375 2.0q-0.859375 0.75 -2.359375 0.75q-0.375 0 -0.71875 -0.0625q-0.828125 0.4375 -0.828125 1.109375q0 0.34375 0.28125 0.515625q0.296875 0.171875 1.0 0.171875l1.515625 0q1.390625 0 2.140625 0.59375q0.75 0.578125 0.75 1.703125q0 1.421875 -1.140625 2.15625q-1.140625 0.75 -3.328125 0.75q-1.6875 0 -2.59375 -0.625q-0.90625 -0.625 -0.90625 -1.765625q0 -0.78125 0.5 -1.359375q0.5 -0.5625 1.40625 -0.765625q-0.328125 -0.15625 -0.5625 -0.46875q-0.21875 -0.3125 -0.21875 -0.71875q0 -0.46875 0.25 -0.8125q0.25 -0.359375 0.796875 -0.6875q-0.671875 -0.28125 -1.09375 -0.9375q-0.40625 -0.65625 -0.40625 -1.5q0 -1.40625 0.84375 -2.15625q0.84375 -0.765625 2.390625 -0.765625q0.671875 0 1.203125 0.15625l2.96875 0zm-6.828125 10.0q0 0.703125 0.578125 1.0625q0.59375 0.359375 1.6875 0.359375q1.625 0 2.40625 -0.5q0.796875 -0.484375 0.796875 -1.3125q0 -0.703125 -0.4375 -0.984375q-0.421875 -0.265625 -1.609375 -0.265625l-1.5625 0q-0.875 0 -1.375 0.421875q-0.484375 0.4375 -0.484375 1.21875zm0.703125 -7.265625q0 0.90625 0.5 1.375q0.515625 0.453125 1.421875 0.453125q1.890625 0 1.890625 -1.84375q0 -1.9375 -1.921875 -1.9375q-0.90625 0 -1.40625 0.5q-0.484375 0.484375 -0.484375 1.453125z" fill-rule="nonzero"/><path fill="#000000" d="m609.9283 449.2872q0.34375 0 0.65625 -0.046875q0.328125 -0.046875 0.515625 -0.109375l0 1.0q-0.203125 0.109375 -0.625 0.171875q-0.40625 0.0625 -0.734375 0.0625q-2.484375 0 -2.484375 -2.625l0 -5.09375l-1.21875 0l0 -0.625l1.21875 -0.53125l0.546875 -1.828125l0.75 0l0 1.984375l2.484375 0l0 1.0l-2.484375 0l0 5.046875q0 0.765625 0.359375 1.1875q0.375 0.40625 1.015625 0.40625zm6.5078125 1.078125q-1.90625 0 -3.0 -1.15625q-1.09375 -1.15625 -1.09375 -3.21875q0 -2.0625 1.015625 -3.28125q1.015625 -1.21875 2.734375 -1.21875q1.609375 0 2.546875 1.0625q0.9375 1.046875 0.9375 2.78125l0 0.828125l-5.890625 0q0.03125 1.5 0.75 2.28125q0.734375 0.78125 2.046875 0.78125q1.375 0 2.734375 -0.578125l0 1.15625q-0.6875 0.296875 -1.3125 0.421875q-0.609375 0.140625 -1.46875 0.140625zm-0.359375 -7.796875q-1.03125 0 -1.640625 0.671875q-0.609375 0.671875 -0.71875 1.859375l4.46875 0q0 -1.21875 -0.546875 -1.875q-0.546875 -0.65625 -1.5625 -0.65625zm7.7734375 3.25l-2.96875 -4.171875l1.46875 0l2.265625 3.28125l2.25 -3.28125l1.453125 0l-2.96875 4.171875l3.125 4.390625l-1.46875 0l-2.390625 -3.46875l-2.421875 3.46875l-1.46875 0l3.125 -4.390625zm9.0859375 3.46875q0.34375 0 0.65625 -0.046875q0.328125 -0.046875 0.515625 -0.109375l0 1.0q-0.203125 0.109375 -0.625 0.171875q-0.40625 0.0625 -0.734375 0.0625q-2.484375 0 -2.484375 -2.625l0 -5.09375l-1.21875 0l0 -0.625l1.21875 -0.53125l0.546875 -1.828125l0.75 0l0 1.984375l2.484375 0l0 1.0l-2.484375 0l0 5.046875q0 0.765625 0.359375 1.1875q0.375 0.40625 1.015625 0.40625zm12.8671875 -0.234375l-0.0625 0q-0.90625 1.3125 -2.6875 1.3125q-1.6875 0 -2.625 -1.140625q-0.921875 -1.15625 -0.921875 -3.28125q0 -2.109375 0.9375 -3.28125q0.9375 -1.171875 2.609375 -1.171875q1.734375 0 2.671875 1.265625l0.09375 0l-0.046875 -0.625l-0.03125 -0.59375l0 -3.484375l1.296875 0l0 12.15625l-1.0625 0l-0.171875 -1.15625zm-2.59375 0.21875q1.328125 0 1.921875 -0.71875q0.609375 -0.71875 0.609375 -2.328125l0 -0.28125q0 -1.8125 -0.609375 -2.59375q-0.609375 -0.78125 -1.9375 -0.78125q-1.140625 0 -1.75 0.890625q-0.59375 0.890625 -0.59375 2.5q0 1.640625 0.59375 2.484375q0.609375 0.828125 1.765625 0.828125zm11.8359375 0.9375l-0.25 -1.21875l-0.0625 0q-0.640625 0.796875 -1.28125 1.09375q-0.640625 0.28125 -1.59375 0.28125q-1.265625 0 -2.0 -0.65625q-0.71875 -0.65625 -0.71875 -1.875q0 -2.59375 4.15625 -2.71875l1.453125 -0.046875l0 -0.53125q0 -1.0 -0.4375 -1.484375q-0.4375 -0.484375 -1.390625 -0.484375q-1.0625 0 -2.421875 0.65625l-0.390625 -0.984375q0.625 -0.34375 1.375 -0.53125q0.765625 -0.203125 1.515625 -0.203125q1.53125 0 2.265625 0.6875q0.75 0.671875 0.75 2.171875l0 5.84375l-0.96875 0zm-2.921875 -0.921875q1.203125 0 1.890625 -0.65625q0.703125 -0.671875 0.703125 -1.859375l0 -0.78125l-1.296875 0.0625q-1.546875 0.046875 -2.234375 0.484375q-0.6875 0.421875 -0.6875 1.3125q0 0.703125 0.421875 1.078125q0.4375 0.359375 1.203125 0.359375zm9.3203125 0q0.34375 0 0.65625 -0.046875q0.328125 -0.046875 0.515625 -0.109375l0 1.0q-0.203125 0.109375 -0.625 0.171875q-0.40625 0.0625 -0.734375 0.0625q-2.484375 0 -2.484375 -2.625l0 -5.09375l-1.21875 0l0 -0.625l1.21875 -0.53125l0.546875 -1.828125l0.75 0l0 1.984375l2.484375 0l0 1.0l-2.484375 0l0 5.046875q0 0.765625 0.359375 1.1875q0.375 0.40625 1.015625 0.40625zm8.1484375 0.921875l-0.25 -1.21875l-0.0625 0q-0.640625 0.796875 -1.28125 1.09375q-0.640625 0.28125 -1.59375 0.28125q-1.265625 0 -2.0 -0.65625q-0.71875 -0.65625 -0.71875 -1.875q0 -2.59375 4.15625 -2.71875l1.453125 -0.046875l0 -0.53125q0 -1.0 -0.4375 -1.484375q-0.4375 -0.484375 -1.390625 -0.484375q-1.0625 0 -2.421875 0.65625l-0.390625 -0.984375q0.625 -0.34375 1.375 -0.53125q0.765625 -0.203125 1.515625 -0.203125q1.53125 0 2.265625 0.6875q0.75 0.671875 0.75 2.171875l0 5.84375l-0.96875 0zm-2.921875 -0.921875q1.203125 0 1.890625 -0.65625q0.703125 -0.671875 0.703125 -1.859375l0 -0.78125l-1.296875 0.0625q-1.546875 0.046875 -2.234375 0.484375q-0.6875 0.421875 -0.6875 1.3125q0 0.703125 0.421875 1.078125q0.4375 0.359375 1.203125 0.359375z" fill-rule="nonzero"/><path fill="#000000" d="m585.0064 468.05283l-0.0625 0q-0.90625 1.3125 -2.6875 1.3125q-1.6875 0 -2.625 -1.140625q-0.921875 -1.15625 -0.921875 -3.28125q0 -2.109375 0.9375 -3.28125q0.9375 -1.171875 2.609375 -1.171875q1.734375 0 2.671875 1.265625l0.09375 0l-0.046875 -0.625l-0.03125 -0.59375l0 -3.484375l1.296875 0l0 12.15625l-1.0625 0l-0.171875 -1.15625zm-2.59375 0.21875q1.328125 0 1.921875 -0.71875q0.609375 -0.71875 0.609375 -2.328125l0 -0.28125q0 -1.8125 -0.609375 -2.59375q-0.609375 -0.78125 -1.9375 -0.78125q-1.140625 0 -1.75 0.890625q-0.59375 0.890625 -0.59375 2.5q0 1.640625 0.59375 2.484375q0.609375 0.828125 1.765625 0.828125zm13.9609375 -3.359375q0 2.09375 -1.0625 3.28125q-1.046875 1.171875 -2.90625 1.171875q-1.140625 0 -2.03125 -0.53125q-0.890625 -0.546875 -1.375 -1.546875q-0.484375 -1.015625 -0.484375 -2.375q0 -2.09375 1.046875 -3.25q1.046875 -1.171875 2.90625 -1.171875q1.796875 0 2.84375 1.203125q1.0625 1.1875 1.0625 3.21875zm-6.515625 0q0 1.640625 0.65625 2.5q0.65625 0.859375 1.921875 0.859375q1.28125 0 1.9375 -0.84375q0.65625 -0.859375 0.65625 -2.515625q0 -1.625 -0.65625 -2.46875q-0.65625 -0.859375 -1.953125 -0.859375q-1.265625 0 -1.921875 0.84375q-0.640625 0.828125 -0.640625 2.484375zm10.0078125 -4.265625l0 5.546875q0 1.046875 0.46875 1.5625q0.484375 0.515625 1.5 0.515625q1.34375 0 1.96875 -0.734375q0.625 -0.734375 0.625 -2.390625l0 -4.5l1.296875 0l0 8.5625l-1.078125 0l-0.1875 -1.15625l-0.0625 0q-0.40625 0.640625 -1.109375 0.984375q-0.703125 0.328125 -1.609375 0.328125q-1.5625 0 -2.34375 -0.734375q-0.78125 -0.75 -0.78125 -2.390625l0 -5.59375l1.3125 0zm12.5859375 -0.140625q1.6875 0 2.625 1.15625q0.9375 1.140625 0.9375 3.25q0 2.109375 -0.953125 3.28125q-0.9375 1.171875 -2.609375 1.171875q-0.828125 0 -1.53125 -0.3125q-0.6875 -0.3125 -1.15625 -0.953125l-0.09375 0l-0.265625 1.109375l-0.9375 0l0 -12.15625l1.296875 0l0 2.953125q0 0.984375 -0.0625 1.78125l0.0625 0q0.90625 -1.28125 2.6875 -1.28125zm-0.1875 1.078125q-1.328125 0 -1.921875 0.765625q-0.578125 0.765625 -0.578125 2.5625q0 1.8125 0.59375 2.59375q0.609375 0.765625 1.9375 0.765625q1.203125 0 1.78125 -0.859375q0.59375 -0.875 0.59375 -2.515625q0 -1.671875 -0.59375 -2.484375q-0.578125 -0.828125 -1.8125 -0.828125zm7.3046875 7.625l-1.296875 0l0 -12.15625l1.296875 0l0 12.15625zm6.375 0.15625q-1.90625 0 -3.0 -1.15625q-1.09375 -1.15625 -1.09375 -3.21875q0 -2.0625 1.015625 -3.28125q1.015625 -1.21875 2.734375 -1.21875q1.609375 0 2.546875 1.0625q0.9375 1.046875 0.9375 2.78125l0 0.828125l-5.890625 0q0.03125 1.5 0.75 2.28125q0.734375 0.78125 2.046875 0.78125q1.375 0 2.734375 -0.578125l0 1.15625q-0.6875 0.296875 -1.3125 0.421875q-0.609375 0.140625 -1.46875 0.140625zm-0.359375 -7.796875q-1.03125 0 -1.640625 0.671875q-0.609375 0.671875 -0.71875 1.859375l4.46875 0q0 -1.21875 -0.546875 -1.875q-0.546875 -0.65625 -1.5625 -0.65625zm4.9921875 3.9375l0 -1.1875l3.84375 0l0 1.1875l-3.84375 0zm9.8515625 -5.0q1.6875 0 2.625 1.15625q0.9375 1.140625 0.9375 3.25q0 2.109375 -0.953125 3.28125q-0.9375 1.171875 -2.609375 1.171875q-0.828125 0 -1.53125 -0.3125q-0.6875 -0.3125 -1.15625 -0.953125l-0.09375 0l-0.265625 1.109375l-0.9375 0l0 -12.15625l1.296875 0l0 2.953125q0 0.984375 -0.0625 1.78125l0.0625 0q0.90625 -1.28125 2.6875 -1.28125zm-0.1875 1.078125q-1.328125 0 -1.921875 0.765625q-0.578125 0.765625 -0.578125 2.5625q0 1.8125 0.59375 2.59375q0.609375 0.765625 1.9375 0.765625q1.203125 0 1.78125 -0.859375q0.59375 -0.875 0.59375 -2.515625q0 -1.671875 -0.59375 -2.484375q-0.578125 -0.828125 -1.8125 -0.828125zm7.2265625 -0.9375l0 5.546875q0 1.046875 0.46875 1.5625q0.484375 0.515625 1.5 0.515625q1.34375 0 1.96875 -0.734375q0.625 -0.734375 0.625 -2.390625l0 -4.5l1.296875 0l0 8.5625l-1.078125 0l-0.1875 -1.15625l-0.0625 0q-0.40625 0.640625 -1.109375 0.984375q-0.703125 0.328125 -1.609375 0.328125q-1.5625 0 -2.34375 -0.734375q-0.78125 -0.75 -0.78125 -2.390625l0 -5.59375l1.3125 0zm17.460938 1.0l-2.171875 0l0 7.5625l-1.296875 0l0 -7.5625l-1.53125 0l0 -0.578125l1.53125 -0.46875l0 -0.484375q0 -3.15625 2.75 -3.15625q0.6875 0 1.59375 0.28125l-0.328125 1.03125q-0.75 -0.234375 -1.28125 -0.234375q-0.734375 0 -1.09375 0.484375q-0.34375 0.484375 -0.34375 1.5625l0 0.5625l2.171875 0l0 1.0zm-5.0 0l-2.171875 0l0 7.5625l-1.296875 0l0 -7.5625l-1.53125 0l0 -0.578125l1.53125 -0.46875l0 -0.484375q0 -3.15625 2.75 -3.15625q0.6875 0 1.59375 0.28125l-0.328125 1.03125q-0.75 -0.234375 -1.28125 -0.234375q-0.734375 0 -1.09375 0.484375q-0.34375 0.484375 -0.34375 1.5625l0 0.5625l2.171875 0l0 1.0zm10.6171875 7.71875q-1.90625 0 -3.0 -1.15625q-1.09375 -1.15625 -1.09375 -3.21875q0 -2.0625 1.015625 -3.28125q1.015625 -1.21875 2.734375 -1.21875q1.609375 0 2.546875 1.0625q0.9375 1.046875 0.9375 2.78125l0 0.828125l-5.890625 0q0.03125 1.5 0.75 2.28125q0.734375 0.78125 2.046875 0.78125q1.375 0 2.734375 -0.578125l0 1.15625q-0.6875 0.296875 -1.3125 0.421875q-0.609375 0.140625 -1.46875 0.140625zm-0.359375 -7.796875q-1.03125 0 -1.640625 0.671875q-0.609375 0.671875 -0.71875 1.859375l4.46875 0q0 -1.21875 -0.546875 -1.875q-0.546875 -0.65625 -1.5625 -0.65625zm9.6171875 -1.078125q0.578125 0 1.03125 0.09375l-0.1875 1.203125q-0.53125 -0.125 -0.9375 -0.125q-1.03125 0 -1.78125 0.84375q-0.734375 0.84375 -0.734375 2.109375l0 4.59375l-1.296875 0l0 -8.5625l1.078125 0l0.140625 1.578125l0.0625 0q0.484375 -0.828125 1.15625 -1.28125q0.671875 -0.453125 1.46875 -0.453125zm6.25 8.875q-1.90625 0 -3.0 -1.15625q-1.09375 -1.15625 -1.09375 -3.21875q0 -2.0625 1.015625 -3.28125q1.015625 -1.21875 2.734375 -1.21875q1.609375 0 2.546875 1.0625q0.9375 1.046875 0.9375 2.78125l0 0.828125l-5.890625 0q0.03125 1.5 0.75 2.28125q0.734375 0.78125 2.046875 0.78125q1.375 0 2.734375 -0.578125l0 1.15625q-0.6875 0.296875 -1.3125 0.421875q-0.609375 0.140625 -1.46875 0.140625zm-0.359375 -7.796875q-1.03125 0 -1.640625 0.671875q-0.609375 0.671875 -0.71875 1.859375l4.46875 0q0 -1.21875 -0.546875 -1.875q-0.546875 -0.65625 -1.5625 -0.65625zm11.5390625 6.484375l-0.0625 0q-0.90625 1.3125 -2.6875 1.3125q-1.6875 0 -2.625 -1.140625q-0.921875 -1.15625 -0.921875 -3.28125q0 -2.109375 0.9375 -3.28125q0.9375 -1.171875 2.609375 -1.171875q1.734375 0 2.671875 1.265625l0.09375 0l-0.046875 -0.625l-0.03125 -0.59375l0 -3.484375l1.296875 0l0 12.15625l-1.0625 0l-0.171875 -1.15625zm-2.59375 0.21875q1.328125 0 1.921875 -0.71875q0.609375 -0.71875 0.609375 -2.328125l0 -0.28125q0 -1.8125 -0.609375 -2.59375q-0.609375 -0.78125 -1.9375 -0.78125q-1.140625 0 -1.75 0.890625q-0.59375 0.890625 -0.59375 2.5q0 1.640625 0.59375 2.484375q0.609375 0.828125 1.765625 0.828125z" fill-rule="nonzero"/><path fill="#f3f3f3" d="m334.31497 211.08661l243.96848 0l0 49.543304l-243.96848 0z" fill-rule="evenodd"/><path stroke="#000000" stroke-width="1.0" stroke-linejoin="round" stroke-linecap="butt" d="m334.31497 211.08661l243.96848 0l0 49.543304l-243.96848 0z" fill-rule="evenodd"/><path fill="#000000" d="m384.70157 241.71826l0 -11.421875l1.328125 0l0 11.421875l-1.328125 0zm10.1171875 0l0 -5.546875q0 -1.046875 -0.484375 -1.5625q-0.46875 -0.515625 -1.484375 -0.515625q-1.34375 0 -1.96875 0.734375q-0.625 0.71875 -0.625 2.390625l0 4.5l-1.296875 0l0 -8.5625l1.0625 0l0.203125 1.171875l0.0625 0q0.40625 -0.640625 1.125 -0.984375q0.71875 -0.34375 1.59375 -0.34375q1.546875 0 2.328125 0.75q0.78125 0.734375 0.78125 2.375l0 5.59375l-1.296875 0zm7.9453125 0.15625q-0.828125 0 -1.53125 -0.3125q-0.6875 -0.3125 -1.15625 -0.953125l-0.09375 0q0.09375 0.75 0.09375 1.4375l0 3.515625l-1.296875 0l0 -12.40625l1.0625 0l0.171875 1.171875l0.0625 0q0.5 -0.703125 1.15625 -1.015625q0.671875 -0.3125 1.53125 -0.3125q1.703125 0 2.625 1.171875q0.9375 1.15625 0.9375 3.25q0 2.109375 -0.953125 3.28125q-0.9375 1.171875 -2.609375 1.171875zm-0.1875 -7.78125q-1.3125 0 -1.90625 0.734375q-0.578125 0.71875 -0.59375 2.3125l0 0.28125q0 1.8125 0.59375 2.59375q0.609375 0.765625 1.9375 0.765625q1.109375 0 1.734375 -0.890625q0.640625 -0.90625 0.640625 -2.484375q0 -1.59375 -0.640625 -2.453125q-0.625 -0.859375 -1.765625 -0.859375zm7.2265625 -0.9375l0 5.546875q0 1.046875 0.46875 1.5625q0.484375 0.515625 1.5 0.515625q1.34375 0 1.96875 -0.734375q0.625 -0.734375 0.625 -2.390625l0 -4.5l1.296875 0l0 8.5625l-1.078125 0l-0.1875 -1.15625l-0.0625 0q-0.40625 0.640625 -1.109375 0.984375q-0.703125 0.328125 -1.609375 0.328125q-1.5625 0 -2.34375 -0.734375q-0.78125 -0.75 -0.78125 -2.390625l0 -5.59375l1.3125 0zm11.3671875 7.640625q0.34375 0 0.65625 -0.046875q0.328125 -0.046875 0.515625 -0.109375l0 1.0q-0.203125 0.109375 -0.625 0.171875q-0.40625 0.0625 -0.734375 0.0625q-2.484375 0 -2.484375 -2.625l0 -5.09375l-1.21875 0l0 -0.625l1.21875 -0.53125l0.546875 -1.828125l0.75 0l0 1.984375l2.484375 0l0 1.0l-2.484375 0l0 5.046875q0 0.765625 0.359375 1.1875q0.375 0.40625 1.015625 0.40625zm9.5234375 -2.125q0 1.515625 -1.09375 2.359375q-1.09375 0.84375 -2.96875 0.84375q-2.03125 0 -3.125 -0.53125l0 -1.28125q0.703125 0.296875 1.53125 0.46875q0.828125 0.171875 1.640625 0.171875q1.328125 0 2.0 -0.5q0.671875 -0.5 0.671875 -1.40625q0 -0.59375 -0.234375 -0.96875q-0.234375 -0.375 -0.796875 -0.6875q-0.5625 -0.328125 -1.703125 -0.734375q-1.59375 -0.578125 -2.28125 -1.359375q-0.671875 -0.78125 -0.671875 -2.03125q0 -1.328125 0.984375 -2.109375q1.0 -0.78125 2.625 -0.78125q1.703125 0 3.140625 0.625l-0.421875 1.15625q-1.40625 -0.59375 -2.75 -0.59375q-1.046875 0 -1.640625 0.453125q-0.59375 0.453125 -0.59375 1.265625q0 0.59375 0.21875 0.96875q0.21875 0.375 0.734375 0.703125q0.515625 0.3125 1.59375 0.6875q1.796875 0.640625 2.46875 1.375q0.671875 0.734375 0.671875 1.90625zm4.90625 2.125q0.34375 0 0.65625 -0.046875q0.328125 -0.046875 0.515625 -0.109375l0 1.0q-0.203125 0.109375 -0.625 0.171875q-0.40625 0.0625 -0.734375 0.0625q-2.484375 0 -2.484375 -2.625l0 -5.09375l-1.21875 0l0 -0.625l1.21875 -0.53125l0.546875 -1.828125l0.75 0l0 1.984375l2.484375 0l0 1.0l-2.484375 0l0 5.046875q0 0.765625 0.359375 1.1875q0.375 0.40625 1.015625 0.40625zm6.7890625 -7.796875q0.578125 0 1.03125 0.09375l-0.1875 1.203125q-0.53125 -0.125 -0.9375 -0.125q-1.03125 0 -1.78125 0.84375q-0.734375 0.84375 -0.734375 2.109375l0 4.59375l-1.296875 0l0 -8.5625l1.078125 0l0.140625 1.578125l0.0625 0q0.484375 -0.828125 1.15625 -1.28125q0.671875 -0.453125 1.46875 -0.453125zm6.25 8.875q-1.90625 0 -3.0 -1.15625q-1.09375 -1.15625 -1.09375 -3.21875q0 -2.0625 1.015625 -3.28125q1.015625 -1.21875 2.734375 -1.21875q1.609375 0 2.546875 1.0625q0.9375 1.046875 0.9375 2.78125l0 0.828125l-5.890625 0q0.03125 1.5 0.75 2.28125q0.734375 0.78125 2.046875 0.78125q1.375 0 2.734375 -0.578125l0 1.15625q-0.6875 0.296875 -1.3125 0.421875q-0.609375 0.140625 -1.46875 0.140625zm-0.359375 -7.796875q-1.03125 0 -1.640625 0.671875q-0.609375 0.671875 -0.71875 1.859375l4.46875 0q0 -1.21875 -0.546875 -1.875q-0.546875 -0.65625 -1.5625 -0.65625zm10.9765625 7.640625l-0.25 -1.21875l-0.0625 0q-0.640625 0.796875 -1.28125 1.09375q-0.640625 0.28125 -1.59375 0.28125q-1.265625 0 -2.0 -0.65625q-0.71875 -0.65625 -0.71875 -1.875q0 -2.59375 4.15625 -2.71875l1.453125 -0.046875l0 -0.53125q0 -1.0 -0.4375 -1.484375q-0.4375 -0.484375 -1.390625 -0.484375q-1.0625 0 -2.421875 0.65625l-0.390625 -0.984375q0.625 -0.34375 1.375 -0.53125q0.765625 -0.203125 1.515625 -0.203125q1.53125 0 2.265625 0.6875q0.75 0.671875 0.75 2.171875l0 5.84375l-0.96875 0zm-2.921875 -0.921875q1.203125 0 1.890625 -0.65625q0.703125 -0.671875 0.703125 -1.859375l0 -0.78125l-1.296875 0.0625q-1.546875 0.046875 -2.234375 0.484375q-0.6875 0.421875 -0.6875 1.3125q0 0.703125 0.421875 1.078125q0.4375 0.359375 1.203125 0.359375zm17.476562 0.921875l0 -5.578125q0 -1.015625 -0.4375 -1.53125q-0.4375 -0.515625 -1.359375 -0.515625q-1.21875 0 -1.796875 0.703125q-0.578125 0.6875 -0.578125 2.140625l0 4.78125l-1.296875 0l0 -5.578125q0 -1.015625 -0.4375 -1.53125q-0.4375 -0.515625 -1.359375 -0.515625q-1.21875 0 -1.796875 0.734375q-0.5625 0.734375 -0.5625 2.390625l0 4.5l-1.296875 0l0 -8.5625l1.0625 0l0.203125 1.171875l0.0625 0q0.375 -0.625 1.03125 -0.96875q0.671875 -0.359375 1.5 -0.359375q2.015625 0 2.625 1.453125l0.0625 0q0.390625 -0.671875 1.109375 -1.0625q0.734375 -0.390625 1.65625 -0.390625q1.453125 0 2.171875 0.75q0.734375 0.734375 0.734375 2.375l0 5.59375l-1.296875 0zm5.4921875 -4.75l0 4.75l-1.328125 0l0 -11.421875l3.125 0q2.109375 0 3.109375 0.8125q1.0 0.796875 1.0 2.40625q0 2.265625 -2.296875 3.0625l3.109375 5.140625l-1.578125 0l-2.765625 -4.75l-2.375 0zm0 -1.140625l1.8125 0q1.40625 0 2.0625 -0.5625q0.65625 -0.5625 0.65625 -1.671875q0 -1.140625 -0.671875 -1.640625q-0.65625 -0.5 -2.140625 -0.5l-1.71875 0l0 4.375zm11.984375 6.046875q-1.90625 0 -3.0 -1.15625q-1.09375 -1.15625 -1.09375 -3.21875q0 -2.0625 1.015625 -3.28125q1.015625 -1.21875 2.734375 -1.21875q1.609375 0 2.546875 1.0625q0.9375 1.046875 0.9375 2.78125l0 0.828125l-5.890625 0q0.03125 1.5 0.75 2.28125q0.734375 0.78125 2.046875 0.78125q1.375 0 2.734375 -0.578125l0 1.15625q-0.6875 0.296875 -1.3125 0.421875q-0.609375 0.140625 -1.46875 0.140625zm-0.359375 -7.796875q-1.03125 0 -1.640625 0.671875q-0.609375 0.671875 -0.71875 1.859375l4.46875 0q0 -1.21875 -0.546875 -1.875q-0.546875 -0.65625 -1.5625 -0.65625zm10.9765625 7.640625l-0.25 -1.21875l-0.0625 0q-0.640625 0.796875 -1.28125 1.09375q-0.640625 0.28125 -1.59375 0.28125q-1.265625 0 -2.0 -0.65625q-0.71875 -0.65625 -0.71875 -1.875q0 -2.59375 4.15625 -2.71875l1.453125 -0.046875l0 -0.53125q0 -1.0 -0.4375 -1.484375q-0.4375 -0.484375 -1.390625 -0.484375q-1.0625 0 -2.421875 0.65625l-0.390625 -0.984375q0.625 -0.34375 1.375 -0.53125q0.765625 -0.203125 1.515625 -0.203125q1.53125 0 2.265625 0.6875q0.75 0.671875 0.75 2.171875l0 5.84375l-0.96875 0zm-2.921875 -0.921875q1.203125 0 1.890625 -0.65625q0.703125 -0.671875 0.703125 -1.859375l0 -0.78125l-1.296875 0.0625q-1.546875 0.046875 -2.234375 0.484375q-0.6875 0.421875 -0.6875 1.3125q0 0.703125 0.421875 1.078125q0.4375 0.359375 1.203125 0.359375zm12.3828125 -0.234375l-0.0625 0q-0.90625 1.3125 -2.6875 1.3125q-1.6875 0 -2.625 -1.140625q-0.921875 -1.15625 -0.921875 -3.28125q0 -2.109375 0.9375 -3.28125q0.9375 -1.171875 2.609375 -1.171875q1.734375 0 2.671875 1.265625l0.09375 0l-0.046875 -0.625l-0.03125 -0.59375l0 -3.484375l1.2968445 0l0 12.15625l-1.0624695 0l-0.171875 -1.15625zm-2.59375 0.21875q1.328125 0 1.921875 -0.71875q0.609375 -0.71875 0.609375 -2.328125l0 -0.28125q0 -1.8125 -0.609375 -2.59375q-0.609375 -0.78125 -1.9375 -0.78125q-1.140625 0 -1.75 0.890625q-0.59375 0.890625 -0.59375 2.5q0 1.640625 0.59375 2.484375q0.609375 0.828125 1.765625 0.828125zm10.195282 1.09375q-1.90625 0 -3.0 -1.15625q-1.09375 -1.15625 -1.09375 -3.21875q0 -2.0625 1.015625 -3.28125q1.015625 -1.21875 2.734375 -1.21875q1.609375 0 2.546875 1.0625q0.9375 1.046875 0.9375 2.78125l0 0.828125l-5.890625 0q0.03125 1.5 0.75 2.28125q0.734375 0.78125 2.046875 0.78125q1.375 0 2.734375 -0.578125l0 1.15625q-0.6875 0.296875 -1.3125 0.421875q-0.609375 0.140625 -1.46875 0.140625zm-0.359375 -7.796875q-1.03125 0 -1.640625 0.671875q-0.609375 0.671875 -0.71875 1.859375l4.46875 0q0 -1.21875 -0.546875 -1.875q-0.546875 -0.65625 -1.5625 -0.65625zm9.6171875 -1.078125q0.578125 0 1.03125 0.09375l-0.1875 1.203125q-0.53125 -0.125 -0.9375 -0.125q-1.03125 0 -1.78125 0.84375q-0.734375 0.84375 -0.734375 2.109375l0 4.59375l-1.296875 0l0 -8.5625l1.078125 0l0.140625 1.578125l0.0625 0q0.484375 -0.828125 1.15625 -1.28125q0.671875 -0.453125 1.46875 -0.453125z" fill-rule="nonzero"/><path fill="#f3f3f3" d="m516.83466 310.38977l243.9685 0l0 49.543304l-243.9685 0z" fill-rule="evenodd"/><path stroke="#000000" stroke-width="1.0" stroke-linejoin="round" stroke-linecap="butt" d="m516.83466 310.38977l243.9685 0l0 49.543304l-243.9685 0z" fill-rule="evenodd"/><path fill="#000000" d="m581.1939 329.59955l3.21875 0q2.28125 0 3.296875 0.6875q1.015625 0.671875 1.015625 2.140625q0 1.015625 -0.578125 1.671875q-0.5625 0.65625 -1.640625 0.859375l0 0.078125q2.59375 0.4375 2.59375 2.734375q0 1.53125 -1.03125 2.390625q-1.03125 0.859375 -2.890625 0.859375l-3.984375 0l0 -11.421875zm1.328125 4.890625l2.1875 0q1.40625 0 2.015625 -0.4375q0.625 -0.453125 0.625 -1.5q0 -0.953125 -0.6875 -1.375q-0.6875 -0.4375 -2.1875 -0.4375l-1.953125 0l0 3.75zm0 1.125l0 4.265625l2.375 0q1.390625 0 2.078125 -0.53125q0.703125 -0.53125 0.703125 -1.671875q0 -1.0625 -0.71875 -1.5625q-0.703125 -0.5 -2.171875 -0.5l-2.265625 0zm10.0546875 -3.15625l0 5.546875q0 1.046875 0.46875 1.5625q0.484375 0.515625 1.5 0.515625q1.34375 0 1.96875 -0.734375q0.625 -0.734375 0.625 -2.390625l0 -4.5l1.296875 0l0 8.5625l-1.078125 0l-0.1875 -1.15625l-0.0625 0q-0.40625 0.640625 -1.109375 0.984375q-0.703125 0.328125 -1.609375 0.328125q-1.5625 0 -2.34375 -0.734375q-0.78125 -0.75 -0.78125 -2.390625l0 -5.59375l1.3125 0zm17.460938 1.0l-2.171875 0l0 7.5625l-1.296875 0l0 -7.5625l-1.53125 0l0 -0.578125l1.53125 -0.46875l0 -0.484375q0 -3.15625 2.75 -3.15625q0.6875 0 1.59375 0.28125l-0.328125 1.03125q-0.75 -0.234375 -1.28125 -0.234375q-0.734375 0 -1.09375 0.484375q-0.34375 0.484375 -0.34375 1.5625l0 0.5625l2.171875 0l0 1.0zm-5.0 0l-2.171875 0l0 7.5625l-1.296875 0l0 -7.5625l-1.53125 0l0 -0.578125l1.53125 -0.46875l0 -0.484375q0 -3.15625 2.75 -3.15625q0.6875 0 1.59375 0.28125l-0.328125 1.03125q-0.75 -0.234375 -1.28125 -0.234375q-0.734375 0 -1.09375 0.484375q-0.34375 0.484375 -0.34375 1.5625l0 0.5625l2.171875 0l0 1.0zm10.6171875 7.71875q-1.90625 0 -3.0 -1.15625q-1.09375 -1.15625 -1.09375 -3.21875q0 -2.0625 1.015625 -3.28125q1.015625 -1.21875 2.734375 -1.21875q1.609375 0 2.546875 1.0625q0.9375 1.046875 0.9375 2.78125l0 0.828125l-5.890625 0q0.03125 1.5 0.75 2.28125q0.734375 0.78125 2.046875 0.78125q1.375 0 2.734375 -0.578125l0 1.15625q-0.6875 0.296875 -1.3125 0.421875q-0.609375 0.140625 -1.46875 0.140625zm-0.359375 -7.796875q-1.03125 0 -1.640625 0.671875q-0.609375 0.671875 -0.71875 1.859375l4.46875 0q0 -1.21875 -0.546875 -1.875q-0.546875 -0.65625 -1.5625 -0.65625zm9.6171875 -1.078125q0.578125 0 1.03125 0.09375l-0.1875 1.203125q-0.53125 -0.125 -0.9375 -0.125q-1.03125 0 -1.78125 0.84375q-0.734375 0.84375 -0.734375 2.109375l0 4.59375l-1.296875 0l0 -8.5625l1.078125 0l0.140625 1.578125l0.0625 0q0.484375 -0.828125 1.15625 -1.28125q0.671875 -0.453125 1.46875 -0.453125zm6.25 8.875q-1.90625 0 -3.0 -1.15625q-1.09375 -1.15625 -1.09375 -3.21875q0 -2.0625 1.015625 -3.28125q1.015625 -1.21875 2.734375 -1.21875q1.609375 0 2.546875 1.0625q0.9375 1.046875 0.9375 2.78125l0 0.828125l-5.890625 0q0.03125 1.5 0.75 2.28125q0.734375 0.78125 2.046875 0.78125q1.375 0 2.734375 -0.578125l0 1.15625q-0.6875 0.296875 -1.3125 0.421875q-0.609375 0.140625 -1.46875 0.140625zm-0.359375 -7.796875q-1.03125 0 -1.640625 0.671875q-0.609375 0.671875 -0.71875 1.859375l4.46875 0q0 -1.21875 -0.546875 -1.875q-0.546875 -0.65625 -1.5625 -0.65625zm11.5390625 6.484375l-0.0625 0q-0.90625 1.3125 -2.6875 1.3125q-1.6875 0 -2.625 -1.140625q-0.921875 -1.15625 -0.921875 -3.28125q0 -2.109375 0.9375 -3.28125q0.9375 -1.171875 2.609375 -1.171875q1.734375 0 2.671875 1.265625l0.09375 0l-0.046875 -0.625l-0.03125 -0.59375l0 -3.484375l1.296875 0l0 12.15625l-1.0625 0l-0.171875 -1.15625zm-2.59375 0.21875q1.328125 0 1.921875 -0.71875q0.609375 -0.71875 0.609375 -2.328125l0 -0.28125q0 -1.8125 -0.609375 -2.59375q-0.609375 -0.78125 -1.9375 -0.78125q-1.140625 0 -1.75 0.890625q-0.59375 0.890625 -0.59375 2.5q0 1.640625 0.59375 2.484375q0.609375 0.828125 1.765625 0.828125zm8.1015625 -3.8125l0 4.75l-1.328125 0l0 -11.421875l3.125 0q2.109375 0 3.109375 0.8125q1.0 0.796875 1.0 2.40625q0 2.265625 -2.296875 3.0625l3.109375 5.140625l-1.578125 0l-2.765625 -4.75l-2.375 0zm0 -1.140625l1.8125 0q1.40625 0 2.0625 -0.5625q0.65625 -0.5625 0.65625 -1.671875q0 -1.140625 -0.671875 -1.640625q-0.65625 -0.5 -2.140625 -0.5l-1.71875 0l0 4.375zm11.984375 6.046875q-1.90625 0 -3.0 -1.15625q-1.09375 -1.15625 -1.09375 -3.21875q0 -2.0625 1.015625 -3.28125q1.015625 -1.21875 2.734375 -1.21875q1.609375 0 2.546875 1.0625q0.9375 1.046875 0.9375 2.78125l0 0.828125l-5.890625 0q0.03125 1.5 0.75 2.28125q0.734375 0.78125 2.046875 0.78125q1.375 0 2.734375 -0.578125l0 1.15625q-0.6875 0.296875 -1.3125 0.421875q-0.609375 0.140625 -1.46875 0.140625zm-0.359375 -7.796875q-1.03125 0 -1.640625 0.671875q-0.609375 0.671875 -0.71875 1.859375l4.46875 0q0 -1.21875 -0.546875 -1.875q-0.546875 -0.65625 -1.5625 -0.65625zm10.9765625 7.640625l-0.25 -1.21875l-0.0625 0q-0.640625 0.796875 -1.28125 1.09375q-0.640625 0.28125 -1.59375 0.28125q-1.265625 0 -2.0 -0.65625q-0.71875 -0.65625 -0.71875 -1.875q0 -2.59375 4.15625 -2.71875l1.453125 -0.046875l0 -0.53125q0 -1.0 -0.4375 -1.484375q-0.4375 -0.484375 -1.390625 -0.484375q-1.0625 0 -2.421875 0.65625l-0.390625 -0.984375q0.625 -0.34375 1.375 -0.53125q0.765625 -0.203125 1.515625 -0.203125q1.53125 0 2.265625 0.6875q0.75 0.671875 0.75 2.171875l0 5.84375l-0.96875 0zm-2.921875 -0.921875q1.203125 0 1.890625 -0.65625q0.703125 -0.671875 0.703125 -1.859375l0 -0.78125l-1.296875 0.0625q-1.546875 0.046875 -2.234375 0.484375q-0.6875 0.421875 -0.6875 1.3125q0 0.703125 0.421875 1.078125q0.4375 0.359375 1.203125 0.359375zm12.3828125 -0.234375l-0.0625 0q-0.90625 1.3125 -2.6875 1.3125q-1.6875 0 -2.625 -1.140625q-0.921875 -1.15625 -0.921875 -3.28125q0 -2.109375 0.9375 -3.28125q0.9375 -1.171875 2.609375 -1.171875q1.734375 0 2.671875 1.265625l0.09375 0l-0.046875 -0.625l-0.03125 -0.59375l0 -3.484375l1.296875 0l0 12.15625l-1.0625 0l-0.171875 -1.15625zm-2.59375 0.21875q1.328125 0 1.921875 -0.71875q0.609375 -0.71875 0.609375 -2.328125l0 -0.28125q0 -1.8125 -0.609375 -2.59375q-0.609375 -0.78125 -1.9375 -0.78125q-1.140625 0 -1.75 0.890625q-0.59375 0.890625 -0.59375 2.5q0 1.640625 0.59375 2.484375q0.609375 0.828125 1.765625 0.828125zm10.1953125 1.09375q-1.90625 0 -3.0 -1.15625q-1.09375 -1.15625 -1.09375 -3.21875q0 -2.0625 1.015625 -3.28125q1.015625 -1.21875 2.734375 -1.21875q1.609375 0 2.546875 1.0625q0.9375 1.046875 0.9375 2.78125l0 0.828125l-5.890625 0q0.03125 1.5 0.75 2.28125q0.734375 0.78125 2.046875 0.78125q1.375 0 2.734375 -0.578125l0 1.15625q-0.6875 0.296875 -1.3125 0.421875q-0.609375 0.140625 -1.46875 0.140625zm-0.359375 -7.796875q-1.03125 0 -1.640625 0.671875q-0.609375 0.671875 -0.71875 1.859375l4.46875 0q0 -1.21875 -0.546875 -1.875q-0.546875 -0.65625 -1.5625 -0.65625zm9.6171875 -1.078125q0.578125 0 1.03125 0.09375l-0.1875 1.203125q-0.53125 -0.125 -0.9375 -0.125q-1.03125 0 -1.78125 0.84375q-0.734375 0.84375 -0.734375 2.109375l0 4.59375l-1.296875 0l0 -8.5625l1.078125 0l0.140625 1.578125l0.0625 0q0.484375 -0.828125 1.15625 -1.28125q0.671875 -0.453125 1.46875 -0.453125z" fill-rule="nonzero"/><path fill="#000000" fill-opacity="0.0" d="m456.29922 260.6299l0 149.07086" fill-rule="evenodd"/><path stroke="#000000" stroke-width="1.0" stroke-linejoin="round" stroke-linecap="butt" stroke-dasharray="4.0,3.0" d="m456.29922 260.6299l0 143.07086" fill-rule="evenodd"/><path fill="#000000" stroke="#000000" stroke-width="1.0" stroke-linecap="butt" d="m454.6475 403.70078l1.6517334 4.5381165l1.6517334 -4.5381165z" fill-rule="evenodd"/><path fill="#000000" fill-opacity="0.0" d="m638.8189 359.93307l0 49.763763" fill-rule="evenodd"/><path stroke="#000000" stroke-width="1.0" stroke-linejoin="round" stroke-linecap="butt" stroke-dasharray="4.0,3.0" d="m638.8189 359.93307l0 43.763763" fill-rule="evenodd"/><path fill="#000000" stroke="#000000" stroke-width="1.0" stroke-linecap="butt" d="m637.1672 403.69684l1.6517334 4.5381165l1.6517334 -4.5381165z" fill-rule="evenodd"/><path fill="#000000" fill-opacity="0.0" d="m365.03937 161.52756c0 12.38974 22.818909 18.582626 45.637787 24.779465c22.818909 6.1968536 45.637817 12.397675 45.637817 24.795334" fill-rule="evenodd"/><path stroke="#000000" stroke-width="1.0" stroke-linejoin="round" stroke-linecap="butt" d="m365.03937 161.52756c0 12.38974 22.818909 18.582611 45.637787 24.779465c11.409454 3.0984344 22.818909 6.1978607 31.376007 10.072372c4.278534 1.9372406 7.843994 4.0682983 10.339813 6.489868c0.6239319 0.60539246 1.1810608 1.2289429 1.6657104 1.8721619c0.1211853 0.16081238 0.23782349 0.32284546 0.34985352 0.48614502l0.1020813 0.1525116" fill-rule="evenodd"/><path fill="#000000" stroke="#000000" stroke-width="1.0" stroke-linecap="butt" d="m452.93536 205.8768l2.939972 3.8313293l0.21057129 -4.824753z" fill-rule="evenodd"/><path fill="#000000" fill-opacity="0.0" d="m456.29922 260.6299c0 12.439972 45.629913 18.659424 91.25986 24.879913c45.629883 6.220459 91.25983 12.441925 91.25983 24.88388" fill-rule="evenodd"/><path stroke="#000000" stroke-width="1.0" stroke-linejoin="round" stroke-linecap="butt" stroke-dasharray="4.0,3.0" d="m456.29922 260.6299c0 12.439941 45.629913 18.659424 91.25986 24.879913c22.814941 3.1102295 45.629883 6.220703 62.74109 10.108887c8.555664 1.9440613 15.685303 4.0825806 20.676086 6.5126953c1.2476807 0.6075134 2.3616943 1.2332764 3.3309326 1.8787537c0.4845581 0.3227539 0.93292236 0.65042114 1.34375 0.98324585l0.21374512 0.177948" fill-rule="evenodd"/><path fill="#000000" stroke="#000000" stroke-width="1.0" stroke-linecap="butt" d="m634.42706 305.98462l3.672058 3.1366577l-0.7967529 -4.763153z" fill-rule="evenodd"/><path fill="#f3f3f3" d="m151.79527 310.3937l243.96852 0l0 49.543304l-243.96852 0z" fill-rule="evenodd"/><path stroke="#000000" stroke-width="1.0" stroke-linejoin="round" stroke-linecap="butt" d="m151.79527 310.3937l243.96852 0l0 49.543304l-243.96852 0z" fill-rule="evenodd"/><path fill="#000000" d="m196.05687 329.6035l3.21875 0q2.28125 0 3.296875 0.6875q1.015625 0.671875 1.015625 2.140625q0 1.015625 -0.578125 1.671875q-0.5625 0.65625 -1.640625 0.859375l0 0.078125q2.59375 0.4375 2.59375 2.734375q0 1.53125 -1.03125 2.390625q-1.03125 0.859375 -2.890625 0.859375l-3.984375 0l0 -11.421875zm1.328125 4.890625l2.1875 0q1.40625 0 2.015625 -0.4375q0.625 -0.453125 0.625 -1.5q0 -0.953125 -0.6875 -1.375q-0.6875 -0.4375 -2.1875 -0.4375l-1.953125 0l0 3.75zm0 1.125l0 4.265625l2.375 0q1.390625 0 2.078125 -0.53125q0.703125 -0.53125 0.703125 -1.671875q0 -1.0625 -0.71875 -1.5625q-0.703125 -0.5 -2.171875 -0.5l-2.265625 0zm10.0546875 -3.15625l0 5.546875q0 1.046875 0.46875 1.5625q0.484375 0.515625 1.5 0.515625q1.34375 0 1.96875 -0.734375q0.625 -0.734375 0.625 -2.390625l0 -4.5l1.296875 0l0 8.5625l-1.078125 0l-0.1875 -1.15625l-0.0625 0q-0.40625 0.640625 -1.109375 0.984375q-0.703125 0.328125 -1.609375 0.328125q-1.5625 0 -2.34375 -0.734375q-0.78125 -0.75 -0.78125 -2.390625l0 -5.59375l1.3125 0zm17.460938 1.0l-2.171875 0l0 7.5625l-1.296875 0l0 -7.5625l-1.53125 0l0 -0.578125l1.53125 -0.46875l0 -0.484375q0 -3.15625 2.75 -3.15625q0.6875 0 1.59375 0.28125l-0.328125 1.03125q-0.75 -0.234375 -1.28125 -0.234375q-0.734375 0 -1.09375 0.484375q-0.34375 0.484375 -0.34375 1.5625l0 0.5625l2.171875 0l0 1.0zm-5.0 0l-2.171875 0l0 7.5625l-1.296875 0l0 -7.5625l-1.53125 0l0 -0.578125l1.53125 -0.46875l0 -0.484375q0 -3.15625 2.75 -3.15625q0.6875 0 1.59375 0.28125l-0.328125 1.03125q-0.75 -0.234375 -1.28125 -0.234375q-0.734375 0 -1.09375 0.484375q-0.34375 0.484375 -0.34375 1.5625l0 0.5625l2.171875 0l0 1.0zm10.6171875 7.71875q-1.90625 0 -3.0 -1.15625q-1.09375 -1.15625 -1.09375 -3.21875q0 -2.0625 1.015625 -3.28125q1.015625 -1.21875 2.734375 -1.21875q1.609375 0 2.546875 1.0625q0.9375 1.046875 0.9375 2.78125l0 0.828125l-5.890625 0q0.03125 1.5 0.75 2.28125q0.734375 0.78125 2.046875 0.78125q1.375 0 2.734375 -0.578125l0 1.15625q-0.6875 0.296875 -1.3125 0.421875q-0.609375 0.140625 -1.46875 0.140625zm-0.359375 -7.796875q-1.03125 0 -1.640625 0.671875q-0.609375 0.671875 -0.71875 1.859375l4.46875 0q0 -1.21875 -0.546875 -1.875q-0.546875 -0.65625 -1.5625 -0.65625zm9.6171875 -1.078125q0.578125 0 1.03125 0.09375l-0.1875 1.203125q-0.53125 -0.125 -0.9375 -0.125q-1.03125 0 -1.78125 0.84375q-0.734375 0.84375 -0.734375 2.109375l0 4.59375l-1.296875 0l0 -8.5625l1.078125 0l0.140625 1.578125l0.0625 0q0.484375 -0.828125 1.15625 -1.28125q0.671875 -0.453125 1.46875 -0.453125zm6.25 8.875q-1.90625 0 -3.0 -1.15625q-1.09375 -1.15625 -1.09375 -3.21875q0 -2.0625 1.015625 -3.28125q1.015625 -1.21875 2.734375 -1.21875q1.609375 0 2.546875 1.0625q0.9375 1.046875 0.9375 2.78125l0 0.828125l-5.890625 0q0.03125 1.5 0.75 2.28125q0.734375 0.78125 2.046875 0.78125q1.375 0 2.734375 -0.578125l0 1.15625q-0.6875 0.296875 -1.3125 0.421875q-0.609375 0.140625 -1.46875 0.140625zm-0.359375 -7.796875q-1.03125 0 -1.640625 0.671875q-0.609375 0.671875 -0.71875 1.859375l4.46875 0q0 -1.21875 -0.546875 -1.875q-0.546875 -0.65625 -1.5625 -0.65625zm11.539078 6.484375l-0.0625 0q-0.90625 1.3125 -2.6875153 1.3125q-1.6875 0 -2.625 -1.140625q-0.921875 -1.15625 -0.921875 -3.28125q0 -2.109375 0.9375 -3.28125q0.9375 -1.171875 2.609375 -1.171875q1.7343903 0 2.6718903 1.265625l0.09375 0l-0.046875 -0.625l-0.03125 -0.59375l0 -3.484375l1.296875 0l0 12.15625l-1.0625 0l-0.171875 -1.15625zm-2.5937653 0.21875q1.328125 0 1.9218903 -0.71875q0.609375 -0.71875 0.609375 -2.328125l0 -0.28125q0 -1.8125 -0.609375 -2.59375q-0.60939026 -0.78125 -1.9375153 -0.78125q-1.140625 0 -1.75 0.890625q-0.59375 0.890625 -0.59375 2.5q0 1.640625 0.59375 2.484375q0.609375 0.828125 1.765625 0.828125zm6.7734528 0.9375l0 -11.421875l1.328125 0l0 11.421875l-1.328125 0zm10.1171875 0l0 -5.546875q0 -1.046875 -0.484375 -1.5625q-0.46875 -0.515625 -1.484375 -0.515625q-1.34375 0 -1.96875 0.734375q-0.625 0.71875 -0.625 2.390625l0 4.5l-1.296875 0l0 -8.5625l1.0625 0l0.203125 1.171875l0.0625 0q0.40625 -0.640625 1.125 -0.984375q0.71875 -0.34375 1.59375 -0.34375q1.546875 0 2.328125 0.75q0.78125 0.734375 0.78125 2.375l0 5.59375l-1.296875 0zm7.9453125 0.15625q-0.828125 0 -1.53125 -0.3125q-0.6875 -0.3125 -1.15625 -0.953125l-0.09375 0q0.09375 0.75 0.09375 1.4375l0 3.515625l-1.296875 0l0 -12.40625l1.0625 0l0.171875 1.171875l0.0625 0q0.5 -0.703125 1.15625 -1.015625q0.671875 -0.3125 1.53125 -0.3125q1.703125 0 2.625 1.171875q0.9375 1.15625 0.9375 3.25q0 2.109375 -0.953125 3.28125q-0.9375 1.171875 -2.609375 1.171875zm-0.1875 -7.78125q-1.3125 0 -1.90625 0.734375q-0.578125 0.71875 -0.59375 2.3125l0 0.28125q0 1.8125 0.59375 2.59375q0.609375 0.765625 1.9375 0.765625q1.109375 0 1.734375 -0.890625q0.640625 -0.90625 0.640625 -2.484375q0 -1.59375 -0.640625 -2.453125q-0.625 -0.859375 -1.765625 -0.859375zm7.2265625 -0.9375l0 5.546875q0 1.046875 0.46875 1.5625q0.484375 0.515625 1.5 0.515625q1.34375 0 1.96875 -0.734375q0.625 -0.734375 0.625 -2.390625l0 -4.5l1.296875 0l0 8.5625l-1.078125 0l-0.1875 -1.15625l-0.0625 0q-0.40625 0.640625 -1.109375 0.984375q-0.703125 0.328125 -1.609375 0.328125q-1.5625 0 -2.34375 -0.734375q-0.78125 -0.75 -0.78125 -2.390625l0 -5.59375l1.3125 0zm11.3671875 7.640625q0.34375 0 0.65625 -0.046875q0.328125 -0.046875 0.515625 -0.109375l0 1.0q-0.203125 0.109375 -0.625 0.171875q-0.40625 0.0625 -0.734375 0.0625q-2.484375 0 -2.484375 -2.625l0 -5.09375l-1.21875 0l0 -0.625l1.21875 -0.53125l0.546875 -1.828125l0.75 0l0 1.984375l2.484375 0l0 1.0l-2.484375 0l0 5.046875q0 0.765625 0.359375 1.1875q0.375 0.40625 1.015625 0.40625zm9.5234375 -2.125q0 1.515625 -1.09375 2.359375q-1.09375 0.84375 -2.96875 0.84375q-2.03125 0 -3.125 -0.53125l0 -1.28125q0.703125 0.296875 1.53125 0.46875q0.828125 0.171875 1.640625 0.171875q1.328125 0 2.0 -0.5q0.671875 -0.5 0.671875 -1.40625q0 -0.59375 -0.234375 -0.96875q-0.234375 -0.375 -0.796875 -0.6875q-0.5625 -0.328125 -1.703125 -0.734375q-1.59375 -0.578125 -2.28125 -1.359375q-0.671875 -0.78125 -0.671875 -2.03125q0 -1.328125 0.984375 -2.109375q1.0 -0.78125 2.625 -0.78125q1.703125 0 3.140625 0.625l-0.421875 1.15625q-1.40625 -0.59375 -2.75 -0.59375q-1.046875 0 -1.640625 0.453125q-0.59375 0.453125 -0.59375 1.265625q0 0.59375 0.21875 0.96875q0.21875 0.375 0.734375 0.703125q0.515625 0.3125 1.59375 0.6875q1.796875 0.640625 2.46875 1.375q0.671875 0.734375 0.671875 1.90625zm4.90625 2.125q0.34375 0 0.65625 -0.046875q0.328125 -0.046875 0.515625 -0.109375l0 1.0q-0.203125 0.109375 -0.625 0.171875q-0.40625 0.0625 -0.734375 0.0625q-2.484375 0 -2.484375 -2.625l0 -5.09375l-1.21875 0l0 -0.625l1.21875 -0.53125l0.546875 -1.828125l0.75 0l0 1.984375l2.484375 0l0 1.0l-2.484375 0l0 5.046875q0 0.765625 0.359375 1.1875q0.375 0.40625 1.015625 0.40625zm6.7890625 -7.796875q0.578125 0 1.03125 0.09375l-0.1875 1.203125q-0.53125 -0.125 -0.9375 -0.125q-1.03125 0 -1.78125 0.84375q-0.734375 0.84375 -0.734375 2.109375l0 4.59375l-1.296875 0l0 -8.5625l1.078125 0l0.140625 1.578125l0.0625 0q0.484375 -0.828125 1.15625 -1.28125q0.671875 -0.453125 1.46875 -0.453125zm6.25 8.875q-1.90625 0 -3.0 -1.15625q-1.09375 -1.15625 -1.09375 -3.21875q0 -2.0625 1.015625 -3.28125q1.015625 -1.21875 2.734375 -1.21875q1.609375 0 2.546875 1.0625q0.9375 1.046875 0.9375 2.78125l0 0.828125l-5.890625 0q0.03125 1.5 0.75 2.28125q0.734375 0.78125 2.046875 0.78125q1.375 0 2.734375 -0.578125l0 1.15625q-0.6875 0.296875 -1.3125 0.421875q-0.609375 0.140625 -1.46875 0.140625zm-0.359375 -7.796875q-1.03125 0 -1.640625 0.671875q-0.609375 0.671875 -0.71875 1.859375l4.46875 0q0 -1.21875 -0.546875 -1.875q-0.546875 -0.65625 -1.5625 -0.65625zm10.9765625 7.640625l-0.25 -1.21875l-0.0625 0q-0.640625 0.796875 -1.28125 1.09375q-0.640625 0.28125 -1.59375 0.28125q-1.265625 0 -2.0 -0.65625q-0.71875 -0.65625 -0.71875 -1.875q0 -2.59375 4.15625 -2.71875l1.453125 -0.046875l0 -0.53125q0 -1.0 -0.4375 -1.484375q-0.4375 -0.484375 -1.390625 -0.484375q-1.0625 0 -2.421875 0.65625l-0.390625 -0.984375q0.625 -0.34375 1.375 -0.53125q0.765625 -0.203125 1.515625 -0.203125q1.53125 0 2.265625 0.6875q0.75 0.671875 0.75 2.171875l0 5.84375l-0.96875 0zm-2.921875 -0.921875q1.203125 0 1.890625 -0.65625q0.703125 -0.671875 0.703125 -1.859375l0 -0.78125l-1.296875 0.0625q-1.546875 0.046875 -2.234375 0.484375q-0.6875 0.421875 -0.6875 1.3125q0 0.703125 0.421875 1.078125q0.4375 0.359375 1.203125 0.359375zm17.476562 0.921875l0 -5.578125q0 -1.015625 -0.4375 -1.53125q-0.4375 -0.515625 -1.359375 -0.515625q-1.21875 0 -1.796875 0.703125q-0.578125 0.6875 -0.578125 2.140625l0 4.78125l-1.296875 0l0 -5.578125q0 -1.015625 -0.4375 -1.53125q-0.4375 -0.515625 -1.359375 -0.515625q-1.21875 0 -1.796875 0.734375q-0.5625 0.734375 -0.5625 2.390625l0 4.5l-1.296875 0l0 -8.5625l1.0625 0l0.203125 1.171875l0.0625 0q0.375 -0.625 1.03125 -0.96875q0.671875 -0.359375 1.5 -0.359375q2.015625 0 2.625 1.453125l0.0625 0q0.390625 -0.671875 1.109375 -1.0625q0.734375 -0.390625 1.65625 -0.390625q1.453125 0 2.171875 0.75q0.734375 0.734375 0.734375 2.375l0 5.59375l-1.296875 0z" fill-rule="nonzero"/><path fill="#000000" fill-opacity="0.0" d="m273.77954 359.937l0 49.763763" fill-rule="evenodd"/><path stroke="#000000" stroke-width="1.0" stroke-linejoin="round" stroke-linecap="butt" d="m273.77954 359.937l0 43.763763" fill-rule="evenodd"/><path fill="#000000" stroke="#000000" stroke-width="1.0" stroke-linecap="butt" d="m272.1278 403.70078l1.6517334 4.5381165l1.6517334 -4.5381165z" fill-rule="evenodd"/><path fill="#000000" fill-opacity="0.0" d="m365.03937 161.52756c0 17.877747 -22.811035 17.145233 -45.62204 35.755478c-22.811035 18.61023 -45.62204 56.5632 -45.62204 113.12642" fill-rule="evenodd"/><path stroke="#000000" stroke-width="1.0" stroke-linejoin="round" stroke-linecap="butt" d="m365.03937 161.52756c0 17.877731 -22.811035 17.145233 -45.62204 35.755478c-11.405518 9.305115 -22.811035 23.445923 -31.365173 42.330826c-4.277069 9.442474 -7.841278 20.070984 -10.336243 31.874054c-1.247467 5.90152 -2.2276306 12.09671 -2.895935 18.584106c-0.33413696 3.2436829 -0.59033203 6.5604553 -0.76293945 9.950073c-0.043182373 0.8474426 -0.08111572 1.6993713 -0.11376953 2.5559082c-0.016296387 0.42825317 -0.031280518 0.857666 -0.044921875 1.2881775l-0.01550293 0.5439148" fill-rule="evenodd"/><path fill="#000000" stroke="#000000" stroke-width="1.0" stroke-linecap="butt" d="m272.23126 304.386l1.5853577 4.5617065l1.7177734 -4.513489z" fill-rule="evenodd"/><path fill="#000000" fill-opacity="0.0" d="m365.03937 161.52756c0 18.89215 -68.44095 6.760666 -136.88188 37.784286c-68.44095 31.02362 -136.8819 105.20235 -136.8819 210.40468" fill-rule="evenodd"/><path stroke="#000000" stroke-width="1.0" stroke-linejoin="round" stroke-linecap="butt" d="m365.03937 161.52756c0 18.89215 -68.44095 6.760666 -136.88188 37.784286c-34.220474 15.51181 -68.44095 41.812393 -94.10631 77.38533c-12.832672 17.786469 -23.526573 37.89099 -31.012299 60.124084c-3.7428665 11.116516 -6.6836853 22.765228 -8.688797 34.922333c-1.0025482 6.0785522 -1.7711792 12.28421 -2.2891617 18.614014c-0.25898743 3.164917 -0.45532227 6.3608704 -0.58691406 9.587494c-0.03289032 0.8066101 -0.06173706 1.6151733 -0.086509705 2.4256897c-0.012382507 0.4052124 -0.023757935 0.8109436 -0.034088135 1.2171326l-0.002960205 0.12905884" fill-rule="evenodd"/><path fill="#000000" stroke="#000000" stroke-width="1.0" stroke-linecap="butt" d="m89.698845 403.69638l1.594986 4.55838l1.7082214 -4.517151z" fill-rule="evenodd"/></g></svg>